<svg version="1.1" xmlns="http://www.w3.org/2000/svg" xmlns:xlink="http://www.w3.org/1999/xlink" width="832.44091796875" height="84"><defs/><g><g transform="translate(-142,-302) scale(1,1)"><rect fill="#C0C0C0" stroke="none" x="169" y="319" width="98.44091796875" height="44" opacity="0.2"/></g><g transform="translate(-142,-302) scale(1,1)"><rect fill="#ffffff" stroke="none" x="162" y="312" width="98.44091796875" height="44"/></g><g transform="translate(-142,-302) scale(1,1)"><path fill="none" stroke="#000000" d="M 162 312 L 260.44091796875 312 L 260.44091796875 356 L 162 356 L 162 312 Z Z" stroke-miterlimit="10"/></g><g transform="translate(-142,-302) scale(1,1)"><rect fill="#ffffff" stroke="none" x="152" y="319" width="20" height="10"/></g><g transform="translate(-142,-302) scale(1,1)"><path fill="none" stroke="#000000" d="M 152 319 L 172 319 L 172 329 L 152 329 L 152 319 Z Z" stroke-miterlimit="10"/></g><g transform="translate(-142,-302) scale(1,1)"><rect fill="#ffffff" stroke="none" x="152" y="339" width="20" height="10"/></g><g transform="translate(-142,-302) scale(1,1)"><path fill="none" stroke="#000000" d="M 152 339 L 172 339 L 172 349 L 152 349 L 152 339 Z Z" stroke-miterlimit="10"/></g><g transform="translate(-142,-302) scale(1,1)"><g><path fill="none" stroke="none"/><text fill="#000000" stroke="none" font-family="Arial" font-size="13px" font-style="normal" font-weight="bold" text-decoration="none" x="204.66455078125" y="331.5">GUI</text></g></g><g transform="translate(-142,-302) scale(1,1)"><rect fill="#C0C0C0" stroke="none" x="577" y="319" width="98.44091796875" height="44" opacity="0.2"/></g><g transform="translate(-142,-302) scale(1,1)"><rect fill="#ffffff" stroke="none" x="570" y="312" width="98.44091796875" height="44"/></g><g transform="translate(-142,-302) scale(1,1)"><path fill="none" stroke="#000000" d="M 570 312 L 668.44091796875 312 L 668.44091796875 356 L 570 356 L 570 312 Z Z" stroke-miterlimit="10"/></g><g transform="translate(-142,-302) scale(1,1)"><rect fill="#ffffff" stroke="none" x="560" y="319" width="20" height="10"/></g><g transform="translate(-142,-302) scale(1,1)"><path fill="none" stroke="#000000" d="M 560 319 L 580 319 L 580 329 L 560 329 L 560 319 Z Z" stroke-miterlimit="10"/></g><g transform="translate(-142,-302) scale(1,1)"><rect fill="#ffffff" stroke="none" x="560" y="339" width="20" height="10"/></g><g transform="translate(-142,-302) scale(1,1)"><path fill="none" stroke="#000000" d="M 560 339 L 580 339 L 580 349 L 560 349 L 560 339 Z Z" stroke-miterlimit="10"/></g><g transform="translate(-142,-302) scale(1,1)"><g><path fill="none" stroke="none"/><text fill="#000000" stroke="none" font-family="Arial" font-size="13px" font-style="normal" font-weight="bold" text-decoration="none" x="606.52001953125" y="331.5">Game</text></g></g><g transform="translate(-142,-302) scale(1,1)"><path fill="#C0C0C0" stroke="none" d="M 752.064453125 342 C 752.064453125 333.715728 758.780181125 327 767.064453125 327 C 775.348725125 327 782.064453125 333.715728 782.064453125 342 C 782.064453125 350.284272 775.348725125 357 767.064453125 357 C 758.780181125 357 752.064453125 350.284272 752.064453125 342 Z" opacity="0.2"/></g><g transform="translate(-142,-302) scale(1,1)"><path fill="none" stroke="#000000" d="M 761.2287333509419 320.05041089687467 A 15 15 0 0 1 758.7712666490582 349.94958910312533" stroke-miterlimit="10"/></g><g transform="translate(-142,-302) scale(1,1)"><path fill="#ffffff" stroke="none" d="M 748.064453125 335 C 748.064453125 328.3725824 753.437035525 323 760.064453125 323 C 766.691870725 323 772.064453125 328.3725824 772.064453125 335 C 772.064453125 341.6274176 766.691870725 347 760.064453125 347 C 753.437035525 347 748.064453125 341.6274176 748.064453125 335 Z"/></g><g transform="translate(-142,-302) scale(1,1)"><path fill="none" stroke="#000000" d="M 748.064453125 335 C 748.064453125 328.3725824 753.437035525 323 760.064453125 323 C 766.691870725 323 772.064453125 328.3725824 772.064453125 335 C 772.064453125 341.6274176 766.691870725 347 760.064453125 347 C 753.437035525 347 748.064453125 341.6274176 748.064453125 335 Z" stroke-miterlimit="10"/></g><g transform="translate(-142,-302) scale(1,1)"><g><path fill="none" stroke="none"/><text fill="#000000" stroke="none" font-family="Arial" font-size="13px" font-style="normal" font-weight="bold" text-decoration="none" x="696.47998046875" y="369.5">Data Access Interface</text></g></g><g transform="translate(-142,-302) scale(1,1)"><rect fill="#C0C0C0" stroke="none" x="873" y="319" width="98.44091796875" height="44" opacity="0.2"/></g><g transform="translate(-142,-302) scale(1,1)"><rect fill="#ffffff" stroke="none" x="866" y="312" width="98.44091796875" height="44"/></g><g transform="translate(-142,-302) scale(1,1)"><path fill="none" stroke="#000000" d="M 866 312 L 964.44091796875 312 L 964.44091796875 356 L 866 356 L 866 312 Z Z" stroke-miterlimit="10"/></g><g transform="translate(-142,-302) scale(1,1)"><rect fill="#ffffff" stroke="none" x="856" y="319" width="20" height="10"/></g><g transform="translate(-142,-302) scale(1,1)"><path fill="none" stroke="#000000" d="M 856 319 L 876 319 L 876 329 L 856 329 L 856 319 Z Z" stroke-miterlimit="10"/></g><g transform="translate(-142,-302) scale(1,1)"><rect fill="#ffffff" stroke="none" x="856" y="339" width="20" height="10"/></g><g transform="translate(-142,-302) scale(1,1)"><path fill="none" stroke="#000000" d="M 856 339 L 876 339 L 876 349 L 856 349 L 856 339 Z Z" stroke-miterlimit="10"/></g><g transform="translate(-142,-302) scale(1,1)"><g><path fill="none" stroke="none"/><text fill="#000000" stroke="none" font-family="Arial" font-size="13px" font-style="normal" font-weight="bold" text-decoration="none" x="883.734130859375" y="331.5">Data Access</text></g></g><g transform="translate(-142,-302) scale(1,1)"><path fill="none" stroke="#000000" d="M 669 339 L 745.064453125 336.22757919520546" stroke-miterlimit="10"/></g><g transform="translate(-142,-302) scale(1,1)"><path fill="none" stroke="#000000" d="M 855 339 L 775.064453125 336.23817422945206" stroke-miterlimit="10"/></g><g transform="translate(-142,-302) scale(1,1)"><rect fill="#C0C0C0" stroke="none" x="393" y="319" width="98.44091796875" height="44" opacity="0.2"/></g><g transform="translate(-142,-302) scale(1,1)"><rect fill="#ffffff" stroke="none" x="386" y="312" width="98.44091796875" height="44"/></g><g transform="translate(-142,-302) scale(1,1)"><path fill="none" stroke="#000000" d="M 386 312 L 484.44091796875 312 L 484.44091796875 356 L 386 356 L 386 312 Z Z" stroke-miterlimit="10"/></g><g transform="translate(-142,-302) scale(1,1)"><rect fill="#ffffff" stroke="none" x="376" y="319" width="20" height="10"/></g><g transform="translate(-142,-302) scale(1,1)"><path fill="none" stroke="#000000" d="M 376 319 L 396 319 L 396 329 L 376 329 L 376 319 Z Z" stroke-miterlimit="10"/></g><g transform="translate(-142,-302) scale(1,1)"><rect fill="#ffffff" stroke="none" x="376" y="339" width="20" height="10"/></g><g transform="translate(-142,-302) scale(1,1)"><path fill="none" stroke="#000000" d="M 376 339 L 396 339 L 396 349 L 376 349 L 376 339 Z Z" stroke-miterlimit="10"/></g><g transform="translate(-142,-302) scale(1,1)"><g><path fill="none" stroke="none"/><text fill="#000000" stroke="none" font-family="Arial" font-size="13px" font-style="normal" font-weight="bold" text-decoration="none" x="412.043212890625" y="331.5">Controller</text></g></g><g transform="translate(-142,-302) scale(1,1)"><path fill="none" stroke="#000000" d="M 485 334 L 559 334" stroke-miterlimit="10" stroke-dasharray="3"/></g><g transform="translate(-142,-302) scale(1,1)"><path fill="none" stroke="#000000" d="M 548.8373251423759 338.209517756016 L 559 334 L 548.8373251423758 329.790482243984" stroke-miterlimit="10"/></g><g transform="translate(-142,-302) scale(1,1)"><path fill="#C0C0C0" stroke="none" d="M 311.5 342.5 C 311.5 333.9395856 318.4395856 327 327 327 C 335.5604144 327 342.5 333.9395856 342.5 342.5 C 342.5 351.0604144 335.5604144 358 327 358 C 318.4395856 358 311.5 351.0604144 311.5 342.5 Z" opacity="0.2"/></g><g transform="translate(-142,-302) scale(1,1)"><path fill="none" stroke="#000000" d="M 322.96841057100454 350.21310417639836 A 15.5 15.5 0 0 1 317.03158942899546 319.78689582360164" stroke-miterlimit="10"/></g><g transform="translate(-142,-302) scale(1,1)"><path fill="#ffffff" stroke="none" d="M 307.5 335.5 C 307.5 328.59644 313.09644 323 320 323 C 326.90356 323 332.5 328.59644 332.5 335.5 C 332.5 342.40356 326.90356 348 320 348 C 313.09644 348 307.5 342.40356 307.5 335.5 Z"/></g><g transform="translate(-142,-302) scale(1,1)"><path fill="none" stroke="#000000" d="M 307.5 335.5 C 307.5 328.59644 313.09644 323 320 323 C 326.90356 323 332.5 328.59644 332.5 335.5 C 332.5 342.40356 326.90356 348 320 348 C 313.09644 348 307.5 342.40356 307.5 335.5 Z" stroke-miterlimit="10"/></g><g transform="translate(-142,-302) scale(1,1)"><g><path fill="none" stroke="none"/><text fill="#000000" stroke="none" font-family="Arial" font-size="13px" font-style="normal" font-weight="bold" text-decoration="none" x="306.39697265625" y="370.5">DTO</text></g></g><g transform="translate(-142,-302) scale(1,1)"><path fill="none" stroke="#000000" d="M 375 341 L 335.5 338.0243902439024" stroke-miterlimit="10"/></g><g transform="translate(-142,-302) scale(1,1)"><path fill="none" stroke="#000000" d="M 261 341 L 304.5 338.0243902439024" stroke-miterlimit="10"/></g></g></svg>