<svg version="1.1" xmlns="http://www.w3.org/2000/svg" xmlns:xlink="http://www.w3.org/1999/xlink" width="629.57080078125" height="400"><defs/><g><g transform="translate(-14,2) scale(1,1)"><rect fill="#C0C0C0" stroke="none" x="191" y="175" width="119.54443359375" height="90" opacity="0.2"/></g><g transform="translate(-14,2) scale(1,1)"><rect fill="#ffffff" stroke="none" x="184" y="168" width="119.54443359375" height="90"/></g><g transform="translate(-14,2) scale(1,1)"><path fill="none" stroke="#000000" d="M 184 168 L 303.54443359375 168 L 303.54443359375 258 L 184 258 L 184 168 Z Z" stroke-miterlimit="10"/></g><g transform="translate(-14,2) scale(1,1)"><path fill="none" stroke="#000000" d="M 184 206 L 303.54443359375 206" stroke-miterlimit="10"/></g><g transform="translate(-14,2) scale(1,1)"><g><path fill="none" stroke="none"/><text fill="#000000" stroke="none" font-family="Arial" font-size="13px" font-style="normal" font-weight="normal" text-decoration="none" x="211.61181640625" y="185.5">«interface»</text></g></g><g transform="translate(-14,2) scale(1,1)"><g><path fill="none" stroke="none"/><text fill="#000000" stroke="none" font-family="Arial" font-size="13px" font-style="normal" font-weight="bold" text-decoration="none" x="192.4736328125" y="200.5">IPlayerRepository</text></g></g><g transform="translate(-14,2) scale(1,1)"><g><path fill="none" stroke="none"/><text fill="#000000" stroke="none" font-family="Arial" font-size="13px" font-style="normal" font-weight="normal" text-decoration="none" x="189" y="223.5">+AddPlayer()</text></g></g><g transform="translate(-14,2) scale(1,1)"><g><path fill="none" stroke="none"/><text fill="#000000" stroke="none" font-family="Arial" font-size="13px" font-style="normal" font-weight="normal" text-decoration="none" x="189" y="238.5">+GetPlayer()</text></g></g><g transform="translate(-14,2) scale(1,1)"><g><path fill="none" stroke="none"/><text fill="#000000" stroke="none" font-family="Arial" font-size="13px" font-style="normal" font-weight="normal" text-decoration="none" x="189" y="253.5">+RemovePlayer()</text></g></g><g transform="translate(-14,2) scale(1,1)"><rect fill="#C0C0C0" stroke="none" x="375" y="175" width="111.578125" height="90" opacity="0.2"/></g><g transform="translate(-14,2) scale(1,1)"><rect fill="#ffffff" stroke="none" x="368" y="168" width="111.578125" height="90"/></g><g transform="translate(-14,2) scale(1,1)"><path fill="none" stroke="#000000" d="M 368 168 L 479.578125 168 L 479.578125 258 L 368 258 L 368 168 Z Z" stroke-miterlimit="10"/></g><g transform="translate(-14,2) scale(1,1)"><path fill="none" stroke="#000000" d="M 368 206 L 479.578125 206" stroke-miterlimit="10"/></g><g transform="translate(-14,2) scale(1,1)"><g><path fill="none" stroke="none"/><text fill="#000000" stroke="none" font-family="Arial" font-size="13px" font-style="normal" font-weight="normal" text-decoration="none" x="391.628662109375" y="185.5">«interface»</text></g></g><g transform="translate(-14,2) scale(1,1)"><g><path fill="none" stroke="none"/><text fill="#000000" stroke="none" font-family="Arial" font-size="13px" font-style="normal" font-weight="bold" text-decoration="none" x="376.4609375" y="200.5">ISpellRepository</text></g></g><g transform="translate(-14,2) scale(1,1)"><g><path fill="none" stroke="none"/><text fill="#000000" stroke="none" font-family="Arial" font-size="13px" font-style="normal" font-weight="normal" text-decoration="none" x="373" y="223.5">+AddSpell()</text></g></g><g transform="translate(-14,2) scale(1,1)"><g><path fill="none" stroke="none"/><text fill="#000000" stroke="none" font-family="Arial" font-size="13px" font-style="normal" font-weight="normal" text-decoration="none" x="373" y="238.5">+GetSpell()</text></g></g><g transform="translate(-14,2) scale(1,1)"><g><path fill="none" stroke="none"/><text fill="#000000" stroke="none" font-family="Arial" font-size="13px" font-style="normal" font-weight="normal" text-decoration="none" x="373" y="253.5">+RemoveSpell()</text></g></g><g transform="translate(-14,2) scale(1,1)"><rect fill="#C0C0C0" stroke="none" x="391" y="15" width="89.57080078125" height="117" opacity="0.2"/></g><g transform="translate(-14,2) scale(1,1)"><rect fill="#ffffff" stroke="none" x="384" y="8" width="89.57080078125" height="117"/></g><g transform="translate(-14,2) scale(1,1)"><path fill="none" stroke="#000000" d="M 384 8 L 473.57080078125 8 L 473.57080078125 125 L 384 125 L 384 8 Z Z" stroke-miterlimit="10"/></g><g transform="translate(-14,2) scale(1,1)"><path fill="none" stroke="#000000" d="M 384 33 L 473.57080078125 33" stroke-miterlimit="10"/></g><g transform="translate(-14,2) scale(1,1)"><path fill="none" stroke="#000000" d="M 384 43 L 473.57080078125 43" stroke-miterlimit="10"/></g><g transform="translate(-14,2) scale(1,1)"><g><path fill="none" stroke="none"/><text fill="#000000" stroke="none" font-family="Arial" font-size="13px" font-style="normal" font-weight="bold" text-decoration="none" x="414.331787109375" y="27.5">Spell</text></g></g><g transform="translate(-14,2) scale(1,1)"><g><path fill="none" stroke="none"/><text fill="#000000" stroke="none" font-family="Arial" font-size="13px" font-style="normal" font-weight="normal" text-decoration="none" x="389" y="60.5">+Name()</text></g></g><g transform="translate(-14,2) scale(1,1)"><g><path fill="none" stroke="none"/><text fill="#000000" stroke="none" font-family="Arial" font-size="13px" font-style="normal" font-weight="normal" text-decoration="none" x="389" y="75.5">+Manacost()</text></g></g><g transform="translate(-14,2) scale(1,1)"><g><path fill="none" stroke="none"/><text fill="#000000" stroke="none" font-family="Arial" font-size="13px" font-style="normal" font-weight="normal" text-decoration="none" x="389" y="90.5">+Cooldown()</text></g></g><g transform="translate(-14,2) scale(1,1)"><g><path fill="none" stroke="none"/><text fill="#000000" stroke="none" font-family="Arial" font-size="13px" font-style="normal" font-weight="normal" text-decoration="none" x="389" y="105.5">+Effects()</text></g></g><g transform="translate(-14,2) scale(1,1)"><g><path fill="none" stroke="none"/><text fill="#000000" stroke="none" font-family="Arial" font-size="13px" font-style="normal" font-weight="normal" text-decoration="none" x="389" y="120.5">+Params()</text></g></g><g transform="translate(-14,2) scale(1,1)"><path fill="none" stroke="#000000" d="M 426 168 L 426 125" stroke-miterlimit="10" stroke-dasharray="3"/></g><g transform="translate(-14,2) scale(1,1)"><path fill="none" stroke="#000000" d="M 430.209517756016 135.16267485762415 L 426 125 L 421.790482243984 135.16267485762415" stroke-miterlimit="10"/></g><g transform="translate(-14,2) scale(1,1)"><rect fill="#C0C0C0" stroke="none" x="199" y="47" width="89.57080078125" height="72" opacity="0.2"/></g><g transform="translate(-14,2) scale(1,1)"><rect fill="#ffffff" stroke="none" x="192" y="40" width="89.57080078125" height="72"/></g><g transform="translate(-14,2) scale(1,1)"><path fill="none" stroke="#000000" d="M 192 40 L 281.57080078125 40 L 281.57080078125 112 L 192 112 L 192 40 Z Z" stroke-miterlimit="10"/></g><g transform="translate(-14,2) scale(1,1)"><path fill="none" stroke="#000000" d="M 192 65 L 281.57080078125 65" stroke-miterlimit="10"/></g><g transform="translate(-14,2) scale(1,1)"><path fill="none" stroke="#000000" d="M 192 75 L 281.57080078125 75" stroke-miterlimit="10"/></g><g transform="translate(-14,2) scale(1,1)"><g><path fill="none" stroke="none"/><text fill="#000000" stroke="none" font-family="Arial" font-size="13px" font-style="normal" font-weight="bold" text-decoration="none" x="218.361328125" y="59.5">Player</text></g></g><g transform="translate(-14,2) scale(1,1)"><g><path fill="none" stroke="none"/><text fill="#000000" stroke="none" font-family="Arial" font-size="13px" font-style="normal" font-weight="normal" text-decoration="none" x="197" y="92.5">+Name()</text></g></g><g transform="translate(-14,2) scale(1,1)"><g><path fill="none" stroke="none"/><text fill="#000000" stroke="none" font-family="Arial" font-size="13px" font-style="normal" font-weight="normal" text-decoration="none" x="197" y="107.5">+Spells()</text></g></g><g transform="translate(-14,2) scale(1,1)"><path fill="none" stroke="#000000" d="M 238 168 L 238 112" stroke-miterlimit="10" stroke-dasharray="3"/></g><g transform="translate(-14,2) scale(1,1)"><path fill="none" stroke="#000000" d="M 242.209517756016 122.16267485762415 L 238 112 L 233.790482243984 122.16267485762415" stroke-miterlimit="10"/></g><g transform="translate(-14,2) scale(1,1)"><path fill="none" stroke="#000000" d="M 384 74 L 282 74" stroke-miterlimit="10"/></g><g transform="translate(-14,2) scale(1,1)"><path fill="#FFFFFF" stroke="none" d="M 292.16267485762415 69.79048224398402 L 282 74 L 292.16267485762415 78.20951775601598 L 304 74"/></g><g transform="translate(-14,2) scale(1,1)"><path fill="none" stroke="#000000" d="M 292.16267485762415 69.79048224398402 L 282 74 L 292.16267485762415 78.20951775601598 L 304 74 L 292.16267485762415 69.79048224398402" stroke-miterlimit="10"/></g><g transform="translate(-14,2) scale(1,1)"><rect fill="#C0C0C0" stroke="none" x="551" y="23" width="89.57080078125" height="72" opacity="0.2"/></g><g transform="translate(-14,2) scale(1,1)"><rect fill="#ffffff" stroke="none" x="544" y="16" width="89.57080078125" height="72"/></g><g transform="translate(-14,2) scale(1,1)"><path fill="none" stroke="#000000" d="M 544 16 L 633.57080078125 16 L 633.57080078125 88 L 544 88 L 544 16 Z Z" stroke-miterlimit="10"/></g><g transform="translate(-14,2) scale(1,1)"><path fill="none" stroke="#000000" d="M 544 41 L 633.57080078125 41" stroke-miterlimit="10"/></g><g transform="translate(-14,2) scale(1,1)"><path fill="none" stroke="#000000" d="M 544 51 L 633.57080078125 51" stroke-miterlimit="10"/></g><g transform="translate(-14,2) scale(1,1)"><g><path fill="none" stroke="none"/><text fill="#000000" stroke="none" font-family="Arial" font-size="13px" font-style="normal" font-weight="bold" text-decoration="none" x="557.8310546875" y="35.5">SpellEffect</text></g></g><g transform="translate(-14,2) scale(1,1)"><g><path fill="none" stroke="none"/><text fill="#000000" stroke="none" font-family="Arial" font-size="13px" font-style="normal" font-weight="normal" text-decoration="none" x="549" y="68.5">+Type()</text></g></g><g transform="translate(-14,2) scale(1,1)"><g><path fill="none" stroke="none"/><text fill="#000000" stroke="none" font-family="Arial" font-size="13px" font-style="normal" font-weight="normal" text-decoration="none" x="549" y="83.5">+Params()</text></g></g><g transform="translate(-14,2) scale(1,1)"><path fill="none" stroke="#000000" d="M 544 62 L 474 62" stroke-miterlimit="10"/></g><g transform="translate(-14,2) scale(1,1)"><path fill="#FFFFFF" stroke="none" d="M 484.16267485762415 57.790482243984016 L 474 62 L 484.16267485762415 66.20951775601598 L 496 62"/></g><g transform="translate(-14,2) scale(1,1)"><path fill="none" stroke="#000000" d="M 484.16267485762415 57.790482243984016 L 474 62 L 484.16267485762415 66.20951775601598 L 496 62 L 484.16267485762415 57.790482243984016" stroke-miterlimit="10"/></g><g transform="translate(-14,2) scale(1,1)"><rect fill="#C0C0C0" stroke="none" x="167" y="351" width="165.78076171875" height="44" opacity="0.2"/></g><g transform="translate(-14,2) scale(1,1)"><rect fill="#ffffff" stroke="none" x="160" y="344" width="165.78076171875" height="44"/></g><g transform="translate(-14,2) scale(1,1)"><path fill="none" stroke="#000000" d="M 160 344 L 325.78076171875 344 L 325.78076171875 388 L 160 388 L 160 344 Z Z" stroke-miterlimit="10"/></g><g transform="translate(-14,2) scale(1,1)"><path fill="none" stroke="#000000" d="M 160 369 L 325.78076171875 369" stroke-miterlimit="10"/></g><g transform="translate(-14,2) scale(1,1)"><path fill="none" stroke="#000000" d="M 160 379 L 325.78076171875 379" stroke-miterlimit="10"/></g><g transform="translate(-14,2) scale(1,1)"><g><path fill="none" stroke="none"/><text fill="#000000" stroke="none" font-family="Arial" font-size="13px" font-style="normal" font-weight="bold" text-decoration="none" x="169.924072265625" y="363.5">MemoryPlayerRepository</text></g></g><g transform="translate(-14,2) scale(1,1)"><path fill="none" stroke="#000000" d="M 243 344 L 243 258" stroke-miterlimit="10" stroke-dasharray="3"/></g><g transform="translate(-14,2) scale(1,1)"><path fill="#FFFFFF" stroke="none" d="M 251.41903551203197 278.3253497152483 L 243 258 L 234.58096448796803 278.3253497152483"/></g><g transform="translate(-14,2) scale(1,1)"><path fill="none" stroke="#000000" d="M 251.41903551203197 278.3253497152483 L 243 258 L 234.58096448796803 278.3253497152483 L 251.41903551203197 278.3253497152483" stroke-miterlimit="10"/></g><g transform="translate(-14,2) scale(1,1)"><rect fill="#C0C0C0" stroke="none" x="367" y="351" width="157.814453125" height="44" opacity="0.2"/></g><g transform="translate(-14,2) scale(1,1)"><rect fill="#ffffff" stroke="none" x="360" y="344" width="157.814453125" height="44"/></g><g transform="translate(-14,2) scale(1,1)"><path fill="none" stroke="#000000" d="M 360 344 L 517.814453125 344 L 517.814453125 388 L 360 388 L 360 344 Z Z" stroke-miterlimit="10"/></g><g transform="translate(-14,2) scale(1,1)"><path fill="none" stroke="#000000" d="M 360 369 L 517.814453125 369" stroke-miterlimit="10"/></g><g transform="translate(-14,2) scale(1,1)"><path fill="none" stroke="#000000" d="M 360 379 L 517.814453125 379" stroke-miterlimit="10"/></g><g transform="translate(-14,2) scale(1,1)"><g><path fill="none" stroke="none"/><text fill="#000000" stroke="none" font-family="Arial" font-size="13px" font-style="normal" font-weight="bold" text-decoration="none" x="369.911376953125" y="363.5">MemorySpellRepository</text></g></g><g transform="translate(-14,2) scale(1,1)"><path fill="none" stroke="#000000" d="M 428 344 L 428 258" stroke-miterlimit="10" stroke-dasharray="3"/></g><g transform="translate(-14,2) scale(1,1)"><path fill="#FFFFFF" stroke="none" d="M 436.419035512032 278.3253497152483 L 428 258 L 419.580964487968 278.3253497152483"/></g><g transform="translate(-14,2) scale(1,1)"><path fill="none" stroke="#000000" d="M 436.419035512032 278.3253497152483 L 428 258 L 419.580964487968 278.3253497152483 L 436.419035512032 278.3253497152483" stroke-miterlimit="10"/></g><g transform="translate(-14,2) scale(1,1)"><rect fill="#C0C0C0" stroke="none" x="31" y="191" width="110.86083984375" height="60" opacity="0.2"/></g><g transform="translate(-14,2) scale(1,1)"><rect fill="#ffffff" stroke="none" x="24" y="184" width="110.86083984375" height="60"/></g><g transform="translate(-14,2) scale(1,1)"><path fill="none" stroke="#000000" d="M 24 184 L 134.86083984375 184 L 134.86083984375 244 L 24 244 L 24 184 Z Z" stroke-miterlimit="10"/></g><g transform="translate(-14,2) scale(1,1)"><path fill="none" stroke="#000000" d="M 24 222 L 134.86083984375 222" stroke-miterlimit="10"/></g><g transform="translate(-14,2) scale(1,1)"><g><path fill="none" stroke="none"/><text fill="#000000" stroke="none" font-family="Arial" font-size="13px" font-style="normal" font-weight="normal" text-decoration="none" x="47.27001953125" y="201.5">«interface»</text></g></g><g transform="translate(-14,2) scale(1,1)"><g><path fill="none" stroke="none"/><text fill="#000000" stroke="none" font-family="Arial" font-size="13px" font-style="normal" font-weight="bold" text-decoration="none" x="31.385009765625" y="216.5">IMemoryStorage</text></g></g><g transform="translate(-14,2) scale(1,1)"><g><path fill="none" stroke="none"/><text fill="#000000" stroke="none" font-family="Arial" font-size="13px" font-style="normal" font-weight="normal" text-decoration="none" x="29" y="239.5">+Players()</text></g></g><g transform="translate(-14,2) scale(1,1)"><path fill="none" stroke="#000000" d="M 112 245 L 217 343" stroke-miterlimit="10"/></g><g transform="translate(-14,2) scale(1,1)"><path fill="#000000" stroke="none" d="M 206.69829221575029 339.1432116044656 L 217 343 L 212.44275379603874 332.98843133987083 L 200.91678409865688 327.98899849207976"/></g><g transform="translate(-14,2) scale(1,1)"><path fill="none" stroke="#000000" d="M 206.69829221575029 339.1432116044656 L 217 343 L 212.44275379603874 332.98843133987083 L 200.91678409865688 327.98899849207976 L 206.69829221575029 339.1432116044656" stroke-miterlimit="10"/></g><g transform="translate(-14,2) scale(1,1)"><path fill="none" stroke="#000000" d="M 327 366 L 359 366" stroke-miterlimit="10"/></g><g transform="translate(-14,2) scale(1,1)"><path fill="#000000" stroke="none" d="M 348.83732514237585 370.209517756016 L 359 366 L 348.83732514237585 361.790482243984 L 337 366"/></g><g transform="translate(-14,2) scale(1,1)"><path fill="none" stroke="#000000" d="M 348.83732514237585 370.209517756016 L 359 366 L 348.83732514237585 361.790482243984 L 337 366 L 348.83732514237585 370.209517756016" stroke-miterlimit="10"/></g><g transform="translate(-14,2) scale(1,1)"><rect fill="#C0C0C0" stroke="none" x="31" y="351" width="107.2490234375" height="44" opacity="0.2"/></g><g transform="translate(-14,2) scale(1,1)"><rect fill="#ffffff" stroke="none" x="24" y="344" width="107.2490234375" height="44"/></g><g transform="translate(-14,2) scale(1,1)"><path fill="none" stroke="#000000" d="M 24 344 L 131.2490234375 344 L 131.2490234375 388 L 24 388 L 24 344 Z Z" stroke-miterlimit="10"/></g><g transform="translate(-14,2) scale(1,1)"><path fill="none" stroke="#000000" d="M 24 369 L 131.2490234375 369" stroke-miterlimit="10"/></g><g transform="translate(-14,2) scale(1,1)"><path fill="none" stroke="#000000" d="M 24 379 L 131.2490234375 379" stroke-miterlimit="10"/></g><g transform="translate(-14,2) scale(1,1)"><g><path fill="none" stroke="none"/><text fill="#000000" stroke="none" font-family="Arial" font-size="13px" font-style="normal" font-weight="bold" text-decoration="none" x="31.385009765625" y="363.5">MemoryStorage</text></g></g><g transform="translate(-14,2) scale(1,1)"><path fill="none" stroke="#000000" d="M 77 343 L 79 245" stroke-miterlimit="10" stroke-dasharray="3"/></g><g transform="translate(-14,2) scale(1,1)"><path fill="#FFFFFF" stroke="none" d="M 87.002566123207 265.4928996348418 L 79 245 L 70.16800047464143 265.1493370705854"/></g><g transform="translate(-14,2) scale(1,1)"><path fill="none" stroke="#000000" d="M 87.002566123207 265.4928996348418 L 79 245 L 70.16800047464143 265.1493370705854 L 87.002566123207 265.4928996348418" stroke-miterlimit="10"/></g></g></svg>