<svg version="1.1" xmlns="http://www.w3.org/2000/svg" xmlns:xlink="http://www.w3.org/1999/xlink" width="973.57080078125" height="512"><defs/><g><g transform="translate(-46,-22) scale(1,1)"><rect fill="#C0C0C0" stroke="none" x="199" y="103" width="105.0908203125" height="72" opacity="0.2"/></g><g transform="translate(-46,-22) scale(1,1)"><rect fill="#ffffff" stroke="none" x="192" y="96" width="105.0908203125" height="72"/></g><g transform="translate(-46,-22) scale(1,1)"><path fill="none" stroke="#000000" d="M 192 96 L 297.0908203125 96 L 297.0908203125 168 L 192 168 L 192 96 Z Z" stroke-miterlimit="10"/></g><g transform="translate(-46,-22) scale(1,1)"><path fill="none" stroke="#000000" d="M 192 121 L 297.0908203125 121" stroke-miterlimit="10"/></g><g transform="translate(-46,-22) scale(1,1)"><path fill="none" stroke="#000000" d="M 192 131 L 297.0908203125 131" stroke-miterlimit="10"/></g><g transform="translate(-46,-22) scale(1,1)"><g><path fill="none" stroke="none"/><text fill="#000000" stroke="none" font-family="Arial" font-size="13px" font-style="normal" font-weight="bold" text-decoration="none" x="199.023193359375" y="115.5">GameEventBus</text></g></g><g transform="translate(-46,-22) scale(1,1)"><g><path fill="none" stroke="none"/><text fill="#000000" stroke="none" font-family="Arial" font-size="13px" font-style="normal" font-weight="normal" text-decoration="none" x="197" y="148.5">+On()</text></g></g><g transform="translate(-46,-22) scale(1,1)"><g><path fill="none" stroke="none"/><text fill="#000000" stroke="none" font-family="Arial" font-size="13px" font-style="normal" font-weight="normal" text-decoration="none" x="197" y="163.5">+Off()</text></g></g><g transform="translate(-46,-22) scale(1,1)"><rect fill="#C0C0C0" stroke="none" x="63" y="47" width="98.93359375" height="147" opacity="0.2"/></g><g transform="translate(-46,-22) scale(1,1)"><rect fill="#ffffff" stroke="none" x="56" y="40" width="98.93359375" height="147"/></g><g transform="translate(-46,-22) scale(1,1)"><path fill="none" stroke="#000000" d="M 56 40 L 154.93359375 40 L 154.93359375 187 L 56 187 L 56 40 Z Z" stroke-miterlimit="10"/></g><g transform="translate(-46,-22) scale(1,1)"><path fill="none" stroke="#000000" d="M 56 65 L 154.93359375 65" stroke-miterlimit="10"/></g><g transform="translate(-46,-22) scale(1,1)"><path fill="none" stroke="#000000" d="M 56 75 L 154.93359375 75" stroke-miterlimit="10"/></g><g transform="translate(-46,-22) scale(1,1)"><g><path fill="none" stroke="none"/><text fill="#000000" stroke="none" font-family="Arial" font-size="13px" font-style="normal" font-weight="bold" text-decoration="none" x="65.365478515625" y="59.5">GameContext</text></g></g><g transform="translate(-46,-22) scale(1,1)"><g><path fill="none" stroke="none"/><text fill="#000000" stroke="none" font-family="Arial" font-size="13px" font-style="normal" font-weight="normal" text-decoration="none" x="61" y="92.5">+GetTurn()</text></g></g><g transform="translate(-46,-22) scale(1,1)"><g><path fill="none" stroke="none"/><text fill="#000000" stroke="none" font-family="Arial" font-size="13px" font-style="normal" font-weight="normal" text-decoration="none" x="61" y="107.5">+GetRound()</text></g></g><g transform="translate(-46,-22) scale(1,1)"><g><path fill="none" stroke="none"/><text fill="#000000" stroke="none" font-family="Arial" font-size="13px" font-style="normal" font-weight="normal" text-decoration="none" x="61" y="122.5">+GetPlayer()</text></g></g><g transform="translate(-46,-22) scale(1,1)"><g><path fill="none" stroke="none"/><text fill="#000000" stroke="none" font-family="Arial" font-size="13px" font-style="normal" font-weight="normal" text-decoration="none" x="61" y="137.5">+GetPlayers()</text></g></g><g transform="translate(-46,-22) scale(1,1)"><g><path fill="none" stroke="none"/><text fill="#000000" stroke="none" font-family="Arial" font-size="13px" font-style="normal" font-weight="normal" text-decoration="none" x="61" y="152.5">+UseSpell()</text></g></g><g transform="translate(-46,-22) scale(1,1)"><g><path fill="none" stroke="none"/><text fill="#000000" stroke="none" font-family="Arial" font-size="13px" font-style="normal" font-weight="normal" text-decoration="none" x="61" y="167.5">+EndTurn()</text></g></g><g transform="translate(-46,-22) scale(1,1)"><g><path fill="none" stroke="none"/><text fill="#000000" stroke="none" font-family="Arial" font-size="13px" font-style="normal" font-weight="normal" text-decoration="none" x="61" y="182.5">+IsGameOver()</text></g></g><g transform="translate(-46,-22) scale(1,1)"><rect fill="#C0C0C0" stroke="none" x="207" y="487" width="50.919921875" height="44" opacity="0.2"/></g><g transform="translate(-46,-22) scale(1,1)"><rect fill="#ffffff" stroke="none" x="200" y="480" width="50.919921875" height="44"/></g><g transform="translate(-46,-22) scale(1,1)"><path fill="none" stroke="#000000" d="M 200 480 L 250.919921875 480 L 250.919921875 524 L 200 524 L 200 480 Z Z" stroke-miterlimit="10"/></g><g transform="translate(-46,-22) scale(1,1)"><path fill="none" stroke="#000000" d="M 200 505 L 250.919921875 505" stroke-miterlimit="10"/></g><g transform="translate(-46,-22) scale(1,1)"><path fill="none" stroke="#000000" d="M 200 515 L 250.919921875 515" stroke-miterlimit="10"/></g><g transform="translate(-46,-22) scale(1,1)"><g><path fill="none" stroke="none"/><text fill="#000000" stroke="none" font-family="Arial" font-size="13px" font-style="normal" font-weight="bold" text-decoration="none" x="207.035888671875" y="499.5">Player</text></g></g><g transform="translate(-46,-22) scale(1,1)"><rect fill="#C0C0C0" stroke="none" x="183" y="335" width="119.5634765625" height="44" opacity="0.2"/></g><g transform="translate(-46,-22) scale(1,1)"><rect fill="#ffffff" stroke="none" x="176" y="328" width="119.5634765625" height="44"/></g><g transform="translate(-46,-22) scale(1,1)"><path fill="none" stroke="#000000" d="M 176 328 L 295.5634765625 328 L 295.5634765625 372 L 176 372 L 176 328 Z Z" stroke-miterlimit="10"/></g><g transform="translate(-46,-22) scale(1,1)"><path fill="none" stroke="#000000" d="M 176 353 L 295.5634765625 353" stroke-miterlimit="10"/></g><g transform="translate(-46,-22) scale(1,1)"><path fill="none" stroke="#000000" d="M 176 363 L 295.5634765625 363" stroke-miterlimit="10"/></g><g transform="translate(-46,-22) scale(1,1)"><g><path fill="none" stroke="none"/><text fill="#000000" stroke="none" font-family="Arial" font-size="13px" font-style="normal" font-weight="bold" text-decoration="none" x="184.121337890625" y="347.5">PlayerEventProxy</text></g></g><g transform="translate(-46,-22) scale(1,1)"><rect fill="#C0C0C0" stroke="none" x="583" y="487" width="122.4326171875" height="44" opacity="0.2"/></g><g transform="translate(-46,-22) scale(1,1)"><rect fill="#ffffff" stroke="none" x="576" y="480" width="122.4326171875" height="44"/></g><g transform="translate(-46,-22) scale(1,1)"><path fill="none" stroke="#000000" d="M 576 480 L 698.4326171875 480 L 698.4326171875 524 L 576 524 L 576 480 Z Z" stroke-miterlimit="10"/></g><g transform="translate(-46,-22) scale(1,1)"><path fill="none" stroke="#000000" d="M 576 505 L 698.4326171875 505" stroke-miterlimit="10"/></g><g transform="translate(-46,-22) scale(1,1)"><path fill="none" stroke="#000000" d="M 576 515 L 698.4326171875 515" stroke-miterlimit="10"/></g><g transform="translate(-46,-22) scale(1,1)"><g><path fill="none" stroke="none"/><text fill="#000000" stroke="none" font-family="Arial" font-size="13px" font-style="italic" font-weight="bold" text-decoration="none" x="588.469482421875" y="499.5">AbstractCharacter</text></g></g><g transform="translate(-46,-22) scale(1,1)"><path fill="none" stroke="#000000" d="M 251 496 L 576 496" stroke-miterlimit="10"/></g><g transform="translate(-46,-22) scale(1,1)"><path fill="#FFFFFF" stroke="none" d="M 555.6746502847517 504.419035512032 L 576 496 L 555.6746502847517 487.580964487968"/></g><g transform="translate(-46,-22) scale(1,1)"><path fill="none" stroke="#000000" d="M 555.6746502847517 504.419035512032 L 576 496 L 555.6746502847517 487.580964487968 L 555.6746502847517 504.419035512032" stroke-miterlimit="10"/></g><g transform="translate(-46,-22) scale(1,1)"><path fill="none" stroke="#000000" d="M 107 187 L 107 502 L 200 502" stroke-miterlimit="10" stroke-dasharray="3"/></g><g transform="translate(-46,-22) scale(1,1)"><path fill="none" stroke="#000000" d="M 189.83732514237585 506.209517756016 L 200 502 L 189.83732514237585 497.790482243984" stroke-miterlimit="10"/></g><g transform="translate(-46,-22) scale(1,1)"><rect fill="#C0C0C0" stroke="none" x="791" y="151" width="92.11181640625" height="75" opacity="0.2"/></g><g transform="translate(-46,-22) scale(1,1)"><rect fill="#ffffff" stroke="none" x="784" y="144" width="92.11181640625" height="75"/></g><g transform="translate(-46,-22) scale(1,1)"><path fill="none" stroke="#000000" d="M 784 144 L 876.11181640625 144 L 876.11181640625 219 L 784 219 L 784 144 Z Z" stroke-miterlimit="10"/></g><g transform="translate(-46,-22) scale(1,1)"><path fill="none" stroke="#000000" d="M 784 182 L 876.11181640625 182" stroke-miterlimit="10"/></g><g transform="translate(-46,-22) scale(1,1)"><g><path fill="none" stroke="none"/><text fill="#000000" stroke="none" font-family="Arial" font-size="13px" font-style="normal" font-weight="normal" text-decoration="none" x="797.8955078125" y="161.5">«interface»</text></g></g><g transform="translate(-46,-22) scale(1,1)"><g><path fill="none" stroke="none"/><text fill="#000000" stroke="none" font-family="Arial" font-size="13px" font-style="normal" font-weight="bold" text-decoration="none" x="806.931396484375" y="176.5">IHpAble</text></g></g><g transform="translate(-46,-22) scale(1,1)"><g><path fill="none" stroke="none"/><text fill="#000000" stroke="none" font-family="Arial" font-size="13px" font-style="normal" font-weight="normal" text-decoration="none" x="789" y="199.5">+Hp()</text></g></g><g transform="translate(-46,-22) scale(1,1)"><g><path fill="none" stroke="none"/><text fill="#000000" stroke="none" font-family="Arial" font-size="13px" font-style="normal" font-weight="normal" text-decoration="none" x="789" y="214.5">+MaxHp()</text></g></g><g transform="translate(-46,-22) scale(1,1)"><rect fill="#C0C0C0" stroke="none" x="647" y="151" width="89.57080078125" height="75" opacity="0.2"/></g><g transform="translate(-46,-22) scale(1,1)"><rect fill="#ffffff" stroke="none" x="640" y="144" width="89.57080078125" height="75"/></g><g transform="translate(-46,-22) scale(1,1)"><path fill="none" stroke="#000000" d="M 640 144 L 729.57080078125 144 L 729.57080078125 219 L 640 219 L 640 144 Z Z" stroke-miterlimit="10"/></g><g transform="translate(-46,-22) scale(1,1)"><path fill="none" stroke="#000000" d="M 640 182 L 729.57080078125 182" stroke-miterlimit="10"/></g><g transform="translate(-46,-22) scale(1,1)"><g><path fill="none" stroke="none"/><text fill="#000000" stroke="none" font-family="Arial" font-size="13px" font-style="normal" font-weight="normal" text-decoration="none" x="652.625" y="161.5">«interface»</text></g></g><g transform="translate(-46,-22) scale(1,1)"><g><path fill="none" stroke="none"/><text fill="#000000" stroke="none" font-family="Arial" font-size="13px" font-style="normal" font-weight="bold" text-decoration="none" x="660.9404296875" y="176.5">IMpAble</text></g></g><g transform="translate(-46,-22) scale(1,1)"><g><path fill="none" stroke="none"/><text fill="#000000" stroke="none" font-family="Arial" font-size="13px" font-style="normal" font-weight="normal" text-decoration="none" x="645" y="199.5">+Mp()</text></g></g><g transform="translate(-46,-22) scale(1,1)"><g><path fill="none" stroke="none"/><text fill="#000000" stroke="none" font-family="Arial" font-size="13px" font-style="normal" font-weight="normal" text-decoration="none" x="645" y="214.5">+MaxMp()</text></g></g><g transform="translate(-46,-22) scale(1,1)"><rect fill="#C0C0C0" stroke="none" x="927" y="151" width="89.57080078125" height="60" opacity="0.2"/></g><g transform="translate(-46,-22) scale(1,1)"><rect fill="#ffffff" stroke="none" x="920" y="144" width="89.57080078125" height="60"/></g><g transform="translate(-46,-22) scale(1,1)"><path fill="none" stroke="#000000" d="M 920 144 L 1009.57080078125 144 L 1009.57080078125 204 L 920 204 L 920 144 Z Z" stroke-miterlimit="10"/></g><g transform="translate(-46,-22) scale(1,1)"><path fill="none" stroke="#000000" d="M 920 182 L 1009.57080078125 182" stroke-miterlimit="10"/></g><g transform="translate(-46,-22) scale(1,1)"><g><path fill="none" stroke="none"/><text fill="#000000" stroke="none" font-family="Arial" font-size="13px" font-style="normal" font-weight="normal" text-decoration="none" x="932.625" y="161.5">«interface»</text></g></g><g transform="translate(-46,-22) scale(1,1)"><g><path fill="none" stroke="none"/><text fill="#000000" stroke="none" font-family="Arial" font-size="13px" font-style="normal" font-weight="bold" text-decoration="none" x="932.63134765625" y="176.5">INameAble</text></g></g><g transform="translate(-46,-22) scale(1,1)"><g><path fill="none" stroke="none"/><text fill="#000000" stroke="none" font-family="Arial" font-size="13px" font-style="normal" font-weight="normal" text-decoration="none" x="925" y="199.5">+Name()</text></g></g><g transform="translate(-46,-22) scale(1,1)"><rect fill="#C0C0C0" stroke="none" x="359" y="39" width="105.09716796875" height="47" opacity="0.2"/></g><g transform="translate(-46,-22) scale(1,1)"><rect fill="#ffffff" stroke="none" x="352" y="32" width="105.09716796875" height="47"/></g><g transform="translate(-46,-22) scale(1,1)"><path fill="none" stroke="#000000" d="M 352 32 L 457.09716796875 32 L 457.09716796875 79 L 352 79 L 352 32 Z Z" stroke-miterlimit="10"/></g><g transform="translate(-46,-22) scale(1,1)"><path fill="none" stroke="#000000" d="M 352 70 L 457.09716796875 70" stroke-miterlimit="10"/></g><g transform="translate(-46,-22) scale(1,1)"><g><path fill="none" stroke="none"/><text fill="#000000" stroke="none" font-family="Arial" font-size="13px" font-style="normal" font-weight="normal" text-decoration="none" x="372.38818359375" y="49.5">«interface»</text></g></g><g transform="translate(-46,-22) scale(1,1)"><g><path fill="none" stroke="none"/><text fill="#000000" stroke="none" font-family="Arial" font-size="13px" font-style="normal" font-weight="bold" text-decoration="none" x="359.3818359375" y="64.5">IStatsEvaluable</text></g></g><g transform="translate(-46,-22) scale(1,1)"><path fill="none" stroke="#000000" d="M 457 56 L 835 56 L 835 144" stroke-miterlimit="10" stroke-dasharray="3"/></g><g transform="translate(-46,-22) scale(1,1)"><path fill="#FFFFFF" stroke="none" d="M 826.580964487968 123.67465028475169 L 835 144 L 843.419035512032 123.67465028475169"/></g><g transform="translate(-46,-22) scale(1,1)"><path fill="none" stroke="#000000" d="M 826.580964487968 123.67465028475169 L 835 144 L 843.419035512032 123.67465028475169 L 826.580964487968 123.67465028475169" stroke-miterlimit="10"/></g><g transform="translate(-46,-22) scale(1,1)"><path fill="none" stroke="#000000" d="M 457 72 L 684 72 L 684 144" stroke-miterlimit="10" stroke-dasharray="3"/></g><g transform="translate(-46,-22) scale(1,1)"><path fill="#FFFFFF" stroke="none" d="M 675.580964487968 123.67465028475169 L 684 144 L 692.419035512032 123.67465028475169"/></g><g transform="translate(-46,-22) scale(1,1)"><path fill="none" stroke="#000000" d="M 675.580964487968 123.67465028475169 L 684 144 L 692.419035512032 123.67465028475169 L 675.580964487968 123.67465028475169" stroke-miterlimit="10"/></g><g transform="translate(-46,-22) scale(1,1)"><path fill="none" stroke="#000000" d="M 457 40 L 952 40 L 952 144" stroke-miterlimit="10" stroke-dasharray="3"/></g><g transform="translate(-46,-22) scale(1,1)"><path fill="#FFFFFF" stroke="none" d="M 943.580964487968 123.67465028475169 L 952 144 L 960.419035512032 123.67465028475169"/></g><g transform="translate(-46,-22) scale(1,1)"><path fill="none" stroke="#000000" d="M 943.580964487968 123.67465028475169 L 952 144 L 960.419035512032 123.67465028475169 L 943.580964487968 123.67465028475169" stroke-miterlimit="10"/></g><g transform="translate(-46,-22) scale(1,1)"><rect fill="#C0C0C0" stroke="none" x="631" y="295" width="115.58349609375" height="75" opacity="0.2"/></g><g transform="translate(-46,-22) scale(1,1)"><rect fill="#ffffff" stroke="none" x="624" y="288" width="115.58349609375" height="75"/></g><g transform="translate(-46,-22) scale(1,1)"><path fill="none" stroke="#000000" d="M 624 288 L 739.58349609375 288 L 739.58349609375 363 L 624 363 L 624 288 Z Z" stroke-miterlimit="10"/></g><g transform="translate(-46,-22) scale(1,1)"><path fill="none" stroke="#000000" d="M 624 326 L 739.58349609375 326" stroke-miterlimit="10"/></g><g transform="translate(-46,-22) scale(1,1)"><g><path fill="none" stroke="none"/><text fill="#000000" stroke="none" font-family="Arial" font-size="13px" font-style="normal" font-weight="normal" text-decoration="none" x="649.63134765625" y="305.5">«interface»</text></g></g><g transform="translate(-46,-22) scale(1,1)"><g><path fill="none" stroke="none"/><text fill="#000000" stroke="none" font-family="Arial" font-size="13px" font-style="normal" font-weight="bold" text-decoration="none" x="636.989990234375" y="320.5">IMpInteractable</text></g></g><g transform="translate(-46,-22) scale(1,1)"><g><path fill="none" stroke="none"/><text fill="#000000" stroke="none" font-family="Arial" font-size="13px" font-style="normal" font-weight="normal" text-decoration="none" x="629" y="343.5">+BurnMana()</text></g></g><g transform="translate(-46,-22) scale(1,1)"><g><path fill="none" stroke="none"/><text fill="#000000" stroke="none" font-family="Arial" font-size="13px" font-style="normal" font-weight="normal" text-decoration="none" x="629" y="358.5">+ReplenishMana()</text></g></g><g transform="translate(-46,-22) scale(1,1)"><rect fill="#C0C0C0" stroke="none" x="783" y="295" width="102.91357421875" height="75" opacity="0.2"/></g><g transform="translate(-46,-22) scale(1,1)"><rect fill="#ffffff" stroke="none" x="776" y="288" width="102.91357421875" height="75"/></g><g transform="translate(-46,-22) scale(1,1)"><path fill="none" stroke="#000000" d="M 776 288 L 878.91357421875 288 L 878.91357421875 363 L 776 363 L 776 288 Z Z" stroke-miterlimit="10"/></g><g transform="translate(-46,-22) scale(1,1)"><path fill="none" stroke="#000000" d="M 776 326 L 878.91357421875 326" stroke-miterlimit="10"/></g><g transform="translate(-46,-22) scale(1,1)"><g><path fill="none" stroke="none"/><text fill="#000000" stroke="none" font-family="Arial" font-size="13px" font-style="normal" font-weight="normal" text-decoration="none" x="795.29638671875" y="305.5">«interface»</text></g></g><g transform="translate(-46,-22) scale(1,1)"><g><path fill="none" stroke="none"/><text fill="#000000" stroke="none" font-family="Arial" font-size="13px" font-style="normal" font-weight="bold" text-decoration="none" x="783.37548828125" y="320.5">IHpInteractable</text></g></g><g transform="translate(-46,-22) scale(1,1)"><g><path fill="none" stroke="none"/><text fill="#000000" stroke="none" font-family="Arial" font-size="13px" font-style="normal" font-weight="normal" text-decoration="none" x="781" y="343.5">+TakeDamage()</text></g></g><g transform="translate(-46,-22) scale(1,1)"><g><path fill="none" stroke="none"/><text fill="#000000" stroke="none" font-family="Arial" font-size="13px" font-style="normal" font-weight="normal" text-decoration="none" x="781" y="358.5">+TakeHealing()</text></g></g><g transform="translate(-46,-22) scale(1,1)"><path fill="none" stroke="#000000" d="M 683 288 L 683 219" stroke-miterlimit="10" stroke-dasharray="3"/></g><g transform="translate(-46,-22) scale(1,1)"><path fill="#FFFFFF" stroke="none" d="M 691.419035512032 239.3253497152483 L 683 219 L 674.580964487968 239.3253497152483"/></g><g transform="translate(-46,-22) scale(1,1)"><path fill="none" stroke="#000000" d="M 691.419035512032 239.3253497152483 L 683 219 L 674.580964487968 239.3253497152483 L 691.419035512032 239.3253497152483" stroke-miterlimit="10"/></g><g transform="translate(-46,-22) scale(1,1)"><path fill="none" stroke="#000000" d="M 829 288 L 829 219" stroke-miterlimit="10" stroke-dasharray="3"/></g><g transform="translate(-46,-22) scale(1,1)"><path fill="#FFFFFF" stroke="none" d="M 837.419035512032 239.3253497152483 L 829 219 L 820.580964487968 239.3253497152483"/></g><g transform="translate(-46,-22) scale(1,1)"><path fill="none" stroke="#000000" d="M 837.419035512032 239.3253497152483 L 829 219 L 820.580964487968 239.3253497152483 L 837.419035512032 239.3253497152483" stroke-miterlimit="10"/></g><g transform="translate(-46,-22) scale(1,1)"><rect fill="#C0C0C0" stroke="none" x="799" y="415" width="73.32080078125" height="47" opacity="0.2"/></g><g transform="translate(-46,-22) scale(1,1)"><rect fill="#ffffff" stroke="none" x="792" y="408" width="73.32080078125" height="47"/></g><g transform="translate(-46,-22) scale(1,1)"><path fill="none" stroke="#000000" d="M 792 408 L 865.32080078125 408 L 865.32080078125 455 L 792 455 L 792 408 Z Z" stroke-miterlimit="10"/></g><g transform="translate(-46,-22) scale(1,1)"><path fill="none" stroke="#000000" d="M 792 446 L 865.32080078125 446" stroke-miterlimit="10"/></g><g transform="translate(-46,-22) scale(1,1)"><g><path fill="none" stroke="none"/><text fill="#000000" stroke="none" font-family="Arial" font-size="13px" font-style="normal" font-weight="normal" text-decoration="none" x="796.5" y="425.5">«interface»</text></g></g><g transform="translate(-46,-22) scale(1,1)"><g><path fill="none" stroke="none"/><text fill="#000000" stroke="none" font-family="Arial" font-size="13px" font-style="normal" font-weight="bold" text-decoration="none" x="798.3154296875" y="440.5">ICharacter</text></g></g><g transform="translate(-46,-22) scale(1,1)"><path fill="none" stroke="#000000" d="M 827 408 L 827 363" stroke-miterlimit="10" stroke-dasharray="3"/></g><g transform="translate(-46,-22) scale(1,1)"><path fill="#FFFFFF" stroke="none" d="M 835.419035512032 383.3253497152483 L 827 363 L 818.580964487968 383.3253497152483"/></g><g transform="translate(-46,-22) scale(1,1)"><path fill="none" stroke="#000000" d="M 835.419035512032 383.3253497152483 L 827 363 L 818.580964487968 383.3253497152483 L 835.419035512032 383.3253497152483" stroke-miterlimit="10"/></g><g transform="translate(-46,-22) scale(1,1)"><path fill="none" stroke="#000000" d="M 792 416 L 728 416 L 728 363" stroke-miterlimit="10" stroke-dasharray="3"/></g><g transform="translate(-46,-22) scale(1,1)"><path fill="#FFFFFF" stroke="none" d="M 736.419035512032 383.3253497152483 L 728 363 L 719.580964487968 383.3253497152483"/></g><g transform="translate(-46,-22) scale(1,1)"><path fill="none" stroke="#000000" d="M 736.419035512032 383.3253497152483 L 728 363 L 719.580964487968 383.3253497152483 L 736.419035512032 383.3253497152483" stroke-miterlimit="10"/></g><g transform="translate(-46,-22) scale(1,1)"><path fill="none" stroke="#000000" d="M 865 431 L 964 431 L 964 204" stroke-miterlimit="10" stroke-dasharray="3"/></g><g transform="translate(-46,-22) scale(1,1)"><path fill="#FFFFFF" stroke="none" d="M 972.419035512032 224.3253497152483 L 964 204 L 955.580964487968 224.3253497152483"/></g><g transform="translate(-46,-22) scale(1,1)"><path fill="none" stroke="#000000" d="M 972.419035512032 224.3253497152483 L 964 204 L 955.580964487968 224.3253497152483 L 972.419035512032 224.3253497152483" stroke-miterlimit="10"/></g><g transform="translate(-46,-22) scale(1,1)"><path fill="none" stroke="#000000" d="M 698 496 L 828 496 L 828 455" stroke-miterlimit="10" stroke-dasharray="3"/></g><g transform="translate(-46,-22) scale(1,1)"><path fill="#FFFFFF" stroke="none" d="M 836.419035512032 475.3253497152483 L 828 455 L 819.580964487968 475.3253497152483"/></g><g transform="translate(-46,-22) scale(1,1)"><path fill="none" stroke="#000000" d="M 836.419035512032 475.3253497152483 L 828 455 L 819.580964487968 475.3253497152483 L 836.419035512032 475.3253497152483" stroke-miterlimit="10"/></g><g transform="translate(-46,-22) scale(1,1)"><rect fill="#C0C0C0" stroke="none" x="423" y="399" width="106.5380859375" height="90" opacity="0.2"/></g><g transform="translate(-46,-22) scale(1,1)"><rect fill="#ffffff" stroke="none" x="416" y="392" width="106.5380859375" height="90"/></g><g transform="translate(-46,-22) scale(1,1)"><path fill="none" stroke="#000000" d="M 416 392 L 522.5380859375 392 L 522.5380859375 482 L 416 482 L 416 392 Z Z" stroke-miterlimit="10"/></g><g transform="translate(-46,-22) scale(1,1)"><path fill="none" stroke="#000000" d="M 416 430 L 522.5380859375 430" stroke-miterlimit="10"/></g><g transform="translate(-46,-22) scale(1,1)"><g><path fill="none" stroke="none"/><text fill="#000000" stroke="none" font-family="Arial" font-size="13px" font-style="normal" font-weight="normal" text-decoration="none" x="437.108642578125" y="409.5">«interface»</text></g></g><g transform="translate(-46,-22) scale(1,1)"><g><path fill="none" stroke="none"/><text fill="#000000" stroke="none" font-family="Arial" font-size="13px" font-style="normal" font-weight="bold" text-decoration="none" x="422.66455078125" y="424.5">IMageCharacter</text></g></g><g transform="translate(-46,-22) scale(1,1)"><g><path fill="none" stroke="none"/><text fill="#000000" stroke="none" font-family="Arial" font-size="13px" font-style="normal" font-weight="normal" text-decoration="none" x="421" y="447.5">+CastSpell()</text></g></g><g transform="translate(-46,-22) scale(1,1)"><g><path fill="none" stroke="none"/><text fill="#000000" stroke="none" font-family="Arial" font-size="13px" font-style="normal" font-weight="normal" text-decoration="none" x="421" y="462.5">+GetSpell()</text></g></g><g transform="translate(-46,-22) scale(1,1)"><g><path fill="none" stroke="none"/><text fill="#000000" stroke="none" font-family="Arial" font-size="13px" font-style="normal" font-weight="normal" text-decoration="none" x="421" y="477.5">+GetSpells()</text></g></g><g transform="translate(-46,-22) scale(1,1)"><path fill="none" stroke="#000000" d="M 208 480 L 208 372" stroke-miterlimit="10"/></g><g transform="translate(-46,-22) scale(1,1)"><path fill="#000000" stroke="none" d="M 212.209517756016 382.16267485762415 L 208 372 L 203.790482243984 382.16267485762415 L 208 394"/></g><g transform="translate(-46,-22) scale(1,1)"><path fill="none" stroke="#000000" d="M 212.209517756016 382.16267485762415 L 208 372 L 203.790482243984 382.16267485762415 L 208 394 L 212.209517756016 382.16267485762415" stroke-miterlimit="10"/></g><g transform="translate(-46,-22) scale(1,1)"><path fill="none" stroke="#000000" d="M 155 56 L 352 56" stroke-miterlimit="10" stroke-dasharray="3"/></g><g transform="translate(-46,-22) scale(1,1)"><path fill="none" stroke="#000000" d="M 341.83732514237585 60.20951775601599 L 352 56 L 341.83732514237585 51.790482243984016" stroke-miterlimit="10"/></g><g transform="translate(-46,-22) scale(1,1)"><path fill="none" stroke="#000000" d="M 176 336 L 146 336 L 146 187" stroke-miterlimit="10"/></g><g transform="translate(-46,-22) scale(1,1)"><path fill="#000000" stroke="none" d="M 150.209517756016 197.16267485762415 L 146 187 L 141.790482243984 197.16267485762415 L 146 209"/></g><g transform="translate(-46,-22) scale(1,1)"><path fill="none" stroke="#000000" d="M 150.209517756016 197.16267485762415 L 146 187 L 141.790482243984 197.16267485762415 L 146 209 L 150.209517756016 197.16267485762415" stroke-miterlimit="10"/></g><g transform="translate(-46,-22) scale(1,1)"><rect fill="#C0C0C0" stroke="none" x="479" y="103" width="89.57080078125" height="102" opacity="0.2"/></g><g transform="translate(-46,-22) scale(1,1)"><rect fill="#ffffff" stroke="none" x="472" y="96" width="89.57080078125" height="102"/></g><g transform="translate(-46,-22) scale(1,1)"><path fill="none" stroke="#000000" d="M 472 96 L 561.57080078125 96 L 561.57080078125 198 L 472 198 L 472 96 Z Z" stroke-miterlimit="10"/></g><g transform="translate(-46,-22) scale(1,1)"><path fill="none" stroke="#000000" d="M 472 121 L 561.57080078125 121" stroke-miterlimit="10"/></g><g transform="translate(-46,-22) scale(1,1)"><path fill="none" stroke="#000000" d="M 472 131 L 561.57080078125 131" stroke-miterlimit="10"/></g><g transform="translate(-46,-22) scale(1,1)"><g><path fill="none" stroke="none"/><text fill="#000000" stroke="none" font-family="Arial" font-size="13px" font-style="normal" font-weight="bold" text-decoration="none" x="502.331787109375" y="115.5">Spell</text></g></g><g transform="translate(-46,-22) scale(1,1)"><g><path fill="none" stroke="none"/><text fill="#000000" stroke="none" font-family="Arial" font-size="13px" font-style="normal" font-weight="normal" text-decoration="none" x="477" y="148.5">+Cast()</text></g></g><g transform="translate(-46,-22) scale(1,1)"><g><path fill="none" stroke="none"/><text fill="#000000" stroke="none" font-family="Arial" font-size="13px" font-style="normal" font-weight="normal" text-decoration="none" x="477" y="163.5">+Name()</text></g></g><g transform="translate(-46,-22) scale(1,1)"><g><path fill="none" stroke="none"/><text fill="#000000" stroke="none" font-family="Arial" font-size="13px" font-style="normal" font-weight="normal" text-decoration="none" x="477" y="178.5">+Manacost()</text></g></g><g transform="translate(-46,-22) scale(1,1)"><g><path fill="none" stroke="none"/><text fill="#000000" stroke="none" font-family="Arial" font-size="13px" font-style="normal" font-weight="normal" text-decoration="none" x="477" y="193.5">+Cooldown()</text></g></g><g transform="translate(-46,-22) scale(1,1)"><rect fill="#C0C0C0" stroke="none" x="359" y="119" width="76.9453125" height="75" opacity="0.2"/></g><g transform="translate(-46,-22) scale(1,1)"><rect fill="#ffffff" stroke="none" x="352" y="112" width="76.9453125" height="75"/></g><g transform="translate(-46,-22) scale(1,1)"><path fill="none" stroke="#000000" d="M 352 112 L 428.9453125 112 L 428.9453125 187 L 352 187 L 352 112 Z Z" stroke-miterlimit="10"/></g><g transform="translate(-46,-22) scale(1,1)"><path fill="none" stroke="#000000" d="M 352 150 L 428.9453125 150" stroke-miterlimit="10"/></g><g transform="translate(-46,-22) scale(1,1)"><g><path fill="none" stroke="none"/><text fill="#000000" stroke="none" font-family="Arial" font-size="13px" font-style="normal" font-weight="normal" text-decoration="none" x="356.5" y="129.5">«dataType»</text></g></g><g transform="translate(-46,-22) scale(1,1)"><g><path fill="none" stroke="none"/><text fill="#000000" stroke="none" font-family="Arial" font-size="13px" font-style="normal" font-weight="bold" text-decoration="none" x="359.518310546875" y="144.5">SpellEffect</text></g></g><g transform="translate(-46,-22) scale(1,1)"><g><path fill="none" stroke="none"/><text fill="#000000" stroke="none" font-family="Arial" font-size="13px" font-style="normal" font-weight="normal" text-decoration="none" x="357" y="167.5">+Effect</text></g></g><g transform="translate(-46,-22) scale(1,1)"><g><path fill="none" stroke="none"/><text fill="#000000" stroke="none" font-family="Arial" font-size="13px" font-style="normal" font-weight="normal" text-decoration="none" x="357" y="182.5">+Params</text></g></g><g transform="translate(-46,-22) scale(1,1)"><rect fill="#C0C0C0" stroke="none" x="335" y="223" width="114.49169921875" height="37" opacity="0.2"/></g><g transform="translate(-46,-22) scale(1,1)"><rect fill="#ffffff" stroke="none" x="328" y="216" width="114.49169921875" height="37"/></g><g transform="translate(-46,-22) scale(1,1)"><path fill="none" stroke="#000000" d="M 328 216 L 442.49169921875 216 L 442.49169921875 253 L 328 253 L 328 216 Z Z" stroke-miterlimit="10"/></g><g transform="translate(-46,-22) scale(1,1)"><g><path fill="none" stroke="none"/><text fill="#000000" stroke="none" font-family="Arial" font-size="13px" font-style="normal" font-weight="normal" text-decoration="none" x="339.726806640625" y="233.5">«primitiveType»</text></g></g><g transform="translate(-46,-22) scale(1,1)"><g><path fill="none" stroke="none"/><text fill="#000000" stroke="none" font-family="Arial" font-size="13px" font-style="normal" font-weight="bold" text-decoration="none" x="336.22607421875" y="248.5">BaseSpellEffects</text></g></g><g transform="translate(-46,-22) scale(1,1)"><path fill="none" stroke="#000000" d="M 388 187 L 388 216" stroke-miterlimit="10" stroke-dasharray="3"/></g><g transform="translate(-46,-22) scale(1,1)"><path fill="none" stroke="#000000" d="M 383.790482243984 205.83732514237585 L 388 216 L 392.209517756016 205.83732514237585" stroke-miterlimit="10"/></g><g transform="translate(-46,-22) scale(1,1)"><path fill="none" stroke="#000000" d="M 429 148 L 472 148" stroke-miterlimit="10"/></g><g transform="translate(-46,-22) scale(1,1)"><path fill="#FFFFFF" stroke="none" d="M 461.83732514237585 152.209517756016 L 472 148 L 461.83732514237585 143.790482243984 L 450 148"/></g><g transform="translate(-46,-22) scale(1,1)"><path fill="none" stroke="#000000" d="M 461.83732514237585 152.209517756016 L 472 148 L 461.83732514237585 143.790482243984 L 450 148 L 461.83732514237585 152.209517756016" stroke-miterlimit="10"/></g><g transform="translate(-46,-22) scale(1,1)"><rect fill="#C0C0C0" stroke="none" x="407" y="279" width="138.70166015625" height="102" opacity="0.2"/></g><g transform="translate(-46,-22) scale(1,1)"><rect fill="#ffffff" stroke="none" x="400" y="272" width="138.70166015625" height="102"/></g><g transform="translate(-46,-22) scale(1,1)"><path fill="none" stroke="#000000" d="M 400 272 L 538.70166015625 272 L 538.70166015625 374 L 400 374 L 400 272 Z Z" stroke-miterlimit="10"/></g><g transform="translate(-46,-22) scale(1,1)"><path fill="none" stroke="#000000" d="M 400 297 L 538.70166015625 297" stroke-miterlimit="10"/></g><g transform="translate(-46,-22) scale(1,1)"><path fill="none" stroke="#000000" d="M 400 307 L 538.70166015625 307" stroke-miterlimit="10"/></g><g transform="translate(-46,-22) scale(1,1)"><g><path fill="none" stroke="none"/><text fill="#000000" stroke="none" font-family="Arial" font-size="13px" font-style="normal" font-weight="bold" text-decoration="none" x="417.319091796875" y="291.5">SpellOnCooldown</text></g></g><g transform="translate(-46,-22) scale(1,1)"><g><path fill="none" stroke="none"/><text fill="#000000" stroke="none" font-family="Arial" font-size="13px" font-style="normal" font-weight="normal" text-decoration="none" x="405" y="324.5">+Cast()</text></g></g><g transform="translate(-46,-22) scale(1,1)"><g><path fill="none" stroke="none"/><text fill="#000000" stroke="none" font-family="Arial" font-size="13px" font-style="normal" font-weight="normal" text-decoration="none" x="405" y="339.5">+GetCooldown()</text></g></g><g transform="translate(-46,-22) scale(1,1)"><g><path fill="none" stroke="none"/><text fill="#000000" stroke="none" font-family="Arial" font-size="13px" font-style="normal" font-weight="normal" text-decoration="none" x="405" y="354.5">+IsAvailable()</text></g></g><g transform="translate(-46,-22) scale(1,1)"><g><path fill="none" stroke="none"/><text fill="#000000" stroke="none" font-family="Arial" font-size="13px" font-style="normal" font-weight="normal" text-decoration="none" x="405" y="369.5">+DecreaseCooldown()</text></g></g><g transform="translate(-46,-22) scale(1,1)"><path fill="none" stroke="#000000" d="M 502 198 L 502 272" stroke-miterlimit="10"/></g><g transform="translate(-46,-22) scale(1,1)"><path fill="#000000" stroke="none" d="M 497.790482243984 261.83732514237585 L 502 272 L 506.209517756016 261.83732514237585 L 502 250"/></g><g transform="translate(-46,-22) scale(1,1)"><path fill="none" stroke="#000000" d="M 497.790482243984 261.83732514237585 L 502 272 L 506.209517756016 261.83732514237585 L 502 250 L 497.790482243984 261.83732514237585" stroke-miterlimit="10"/></g><g transform="translate(-46,-22) scale(1,1)"><path fill="none" stroke="#000000" d="M 469 392 L 469 374" stroke-miterlimit="10" stroke-dasharray="3"/></g><g transform="translate(-46,-22) scale(1,1)"><path fill="none" stroke="#000000" d="M 473.209517756016 384.16267485762415 L 469 374 L 464.790482243984 384.16267485762415" stroke-miterlimit="10"/></g><g transform="translate(-46,-22) scale(1,1)"><path fill="none" stroke="#000000" d="M 275 372 L 275 416 L 416 416" stroke-miterlimit="10" stroke-dasharray="3"/></g><g transform="translate(-46,-22) scale(1,1)"><path fill="#FFFFFF" stroke="none" d="M 395.6746502847517 424.419035512032 L 416 416 L 395.6746502847517 407.580964487968"/></g><g transform="translate(-46,-22) scale(1,1)"><path fill="none" stroke="#000000" d="M 395.6746502847517 424.419035512032 L 416 416 L 395.6746502847517 407.580964487968 L 395.6746502847517 424.419035512032" stroke-miterlimit="10"/></g><g transform="translate(-46,-22) scale(1,1)"><path fill="none" stroke="#000000" d="M 225 480 L 225 464 L 416 464" stroke-miterlimit="10" stroke-dasharray="3"/></g><g transform="translate(-46,-22) scale(1,1)"><path fill="#FFFFFF" stroke="none" d="M 395.6746502847517 472.419035512032 L 416 464 L 395.6746502847517 455.580964487968"/></g><g transform="translate(-46,-22) scale(1,1)"><path fill="none" stroke="#000000" d="M 395.6746502847517 472.419035512032 L 416 464 L 395.6746502847517 455.580964487968 L 395.6746502847517 472.419035512032" stroke-miterlimit="10"/></g><g transform="translate(-46,-22) scale(1,1)"><path fill="none" stroke="#000000" d="M 562 192 L 584 192 L 584 325 L 624 325" stroke-miterlimit="10" stroke-dasharray="3"/></g><g transform="translate(-46,-22) scale(1,1)"><path fill="none" stroke="#000000" d="M 613.8373251423759 329.209517756016 L 624 325 L 613.8373251423758 320.790482243984" stroke-miterlimit="10"/></g><g transform="translate(-46,-22) scale(1,1)"><path fill="none" stroke="#000000" d="M 539 350 L 624 350" stroke-miterlimit="10" stroke-dasharray="3"/></g><g transform="translate(-46,-22) scale(1,1)"><path fill="none" stroke="#000000" d="M 613.8373251423759 354.209517756016 L 624 350 L 613.8373251423758 345.790482243984" stroke-miterlimit="10"/></g><g transform="translate(-46,-22) scale(1,1)"><path fill="none" stroke="#000000" d="M 523 432 L 792 432" stroke-miterlimit="10" stroke-dasharray="3"/></g><g transform="translate(-46,-22) scale(1,1)"><path fill="#FFFFFF" stroke="none" d="M 771.6746502847517 440.419035512032 L 792 432 L 771.6746502847517 423.580964487968"/></g><g transform="translate(-46,-22) scale(1,1)"><path fill="none" stroke="#000000" d="M 771.6746502847517 440.419035512032 L 792 432 L 771.6746502847517 423.580964487968 L 771.6746502847517 440.419035512032" stroke-miterlimit="10"/></g><g transform="translate(-46,-22) scale(1,1)"><path fill="none" stroke="#000000" d="M 192 128 L 155 128" stroke-miterlimit="10"/></g><g transform="translate(-46,-22) scale(1,1)"><path fill="#000000" stroke="none" d="M 165.16267485762415 123.79048224398402 L 155 128 L 165.16267485762415 132.209517756016 L 177 128"/></g><g transform="translate(-46,-22) scale(1,1)"><path fill="none" stroke="#000000" d="M 165.16267485762415 123.79048224398402 L 155 128 L 165.16267485762415 132.209517756016 L 177 128 L 165.16267485762415 123.79048224398402" stroke-miterlimit="10"/></g><g transform="translate(-46,-22) scale(1,1)"><rect fill="#C0C0C0" stroke="none" x="207" y="223" width="92.8017578125" height="60" opacity="0.2"/></g><g transform="translate(-46,-22) scale(1,1)"><rect fill="#ffffff" stroke="none" x="200" y="216" width="92.8017578125" height="60"/></g><g transform="translate(-46,-22) scale(1,1)"><path fill="none" stroke="#000000" d="M 200 216 L 292.8017578125 216 L 292.8017578125 276 L 200 276 L 200 216 Z Z" stroke-miterlimit="10"/></g><g transform="translate(-46,-22) scale(1,1)"><path fill="none" stroke="#000000" d="M 200 254 L 292.8017578125 254" stroke-miterlimit="10"/></g><g transform="translate(-46,-22) scale(1,1)"><g><path fill="none" stroke="none"/><text fill="#000000" stroke="none" font-family="Arial" font-size="13px" font-style="normal" font-weight="normal" text-decoration="none" x="214.240478515625" y="233.5">«interface»</text></g></g><g transform="translate(-46,-22) scale(1,1)"><g><path fill="none" stroke="none"/><text fill="#000000" stroke="none" font-family="Arial" font-size="13px" font-style="normal" font-weight="bold" text-decoration="none" x="207.38818359375" y="248.5">IEventEmitter</text></g></g><g transform="translate(-46,-22) scale(1,1)"><g><path fill="none" stroke="none"/><text fill="#000000" stroke="none" font-family="Arial" font-size="13px" font-style="normal" font-weight="normal" text-decoration="none" x="205" y="271.5">+Emit()</text></g></g><g transform="translate(-46,-22) scale(1,1)"><path fill="none" stroke="#000000" d="M 240 168 L 240 216" stroke-miterlimit="10" stroke-dasharray="3"/></g><g transform="translate(-46,-22) scale(1,1)"><path fill="#FFFFFF" stroke="none" d="M 231.58096448796803 195.6746502847517 L 240 216 L 248.41903551203197 195.6746502847517"/></g><g transform="translate(-46,-22) scale(1,1)"><path fill="none" stroke="#000000" d="M 231.58096448796803 195.6746502847517 L 240 216 L 248.41903551203197 195.6746502847517 L 231.58096448796803 195.6746502847517" stroke-miterlimit="10"/></g><g transform="translate(-46,-22) scale(1,1)"><path fill="none" stroke="#000000" d="M 240 276 L 240 328" stroke-miterlimit="10"/></g><g transform="translate(-46,-22) scale(1,1)"><path fill="#000000" stroke="none" d="M 235.790482243984 317.83732514237585 L 240 328 L 244.209517756016 317.83732514237585 L 240 306"/></g><g transform="translate(-46,-22) scale(1,1)"><path fill="none" stroke="#000000" d="M 235.790482243984 317.83732514237585 L 240 328 L 244.209517756016 317.83732514237585 L 240 306 L 235.790482243984 317.83732514237585" stroke-miterlimit="10"/></g></g></svg>