<svg version="1.1" xmlns="http://www.w3.org/2000/svg" xmlns:xlink="http://www.w3.org/1999/xlink" width="973.57080078125" height="600"><defs/><g><g transform="translate(-46,-22) scale(1,1)"><rect fill="#C0C0C0" stroke="none" x="199" y="191" width="105.0908203125" height="72" opacity="0.2"/></g><g transform="translate(-46,-22) scale(1,1)"><rect fill="#ffffff" stroke="none" x="192" y="184" width="105.0908203125" height="72"/></g><g transform="translate(-46,-22) scale(1,1)"><path fill="none" stroke="#000000" d="M 192 184 L 297.0908203125 184 L 297.0908203125 256 L 192 256 L 192 184 Z Z" stroke-miterlimit="10"/></g><g transform="translate(-46,-22) scale(1,1)"><path fill="none" stroke="#000000" d="M 192 209 L 297.0908203125 209" stroke-miterlimit="10"/></g><g transform="translate(-46,-22) scale(1,1)"><path fill="none" stroke="#000000" d="M 192 219 L 297.0908203125 219" stroke-miterlimit="10"/></g><g transform="translate(-46,-22) scale(1,1)"><g><path fill="none" stroke="none"/><text fill="#000000" stroke="none" font-family="Arial" font-size="13px" font-style="normal" font-weight="bold" text-decoration="none" x="199.023193359375" y="203.5">GameEventBus</text></g></g><g transform="translate(-46,-22) scale(1,1)"><g><path fill="none" stroke="none"/><text fill="#000000" stroke="none" font-family="Arial" font-size="13px" font-style="normal" font-weight="normal" text-decoration="none" x="197" y="236.5">+On()</text></g></g><g transform="translate(-46,-22) scale(1,1)"><g><path fill="none" stroke="none"/><text fill="#000000" stroke="none" font-family="Arial" font-size="13px" font-style="normal" font-weight="normal" text-decoration="none" x="197" y="251.5">+Off()</text></g></g><g transform="translate(-46,-22) scale(1,1)"><rect fill="#C0C0C0" stroke="none" x="63" y="47" width="98.93359375" height="147" opacity="0.2"/></g><g transform="translate(-46,-22) scale(1,1)"><rect fill="#ffffff" stroke="none" x="56" y="40" width="98.93359375" height="147"/></g><g transform="translate(-46,-22) scale(1,1)"><path fill="none" stroke="#000000" d="M 56 40 L 154.93359375 40 L 154.93359375 187 L 56 187 L 56 40 Z Z" stroke-miterlimit="10"/></g><g transform="translate(-46,-22) scale(1,1)"><path fill="none" stroke="#000000" d="M 56 65 L 154.93359375 65" stroke-miterlimit="10"/></g><g transform="translate(-46,-22) scale(1,1)"><path fill="none" stroke="#000000" d="M 56 75 L 154.93359375 75" stroke-miterlimit="10"/></g><g transform="translate(-46,-22) scale(1,1)"><g><path fill="none" stroke="none"/><text fill="#000000" stroke="none" font-family="Arial" font-size="13px" font-style="normal" font-weight="bold" text-decoration="none" x="65.365478515625" y="59.5">GameContext</text></g></g><g transform="translate(-46,-22) scale(1,1)"><g><path fill="none" stroke="none"/><text fill="#000000" stroke="none" font-family="Arial" font-size="13px" font-style="normal" font-weight="normal" text-decoration="none" x="61" y="92.5">+GetTurn()</text></g></g><g transform="translate(-46,-22) scale(1,1)"><g><path fill="none" stroke="none"/><text fill="#000000" stroke="none" font-family="Arial" font-size="13px" font-style="normal" font-weight="normal" text-decoration="none" x="61" y="107.5">+GetRound()</text></g></g><g transform="translate(-46,-22) scale(1,1)"><g><path fill="none" stroke="none"/><text fill="#000000" stroke="none" font-family="Arial" font-size="13px" font-style="normal" font-weight="normal" text-decoration="none" x="61" y="122.5">+GetPlayer()</text></g></g><g transform="translate(-46,-22) scale(1,1)"><g><path fill="none" stroke="none"/><text fill="#000000" stroke="none" font-family="Arial" font-size="13px" font-style="normal" font-weight="normal" text-decoration="none" x="61" y="137.5">+GetPlayers()</text></g></g><g transform="translate(-46,-22) scale(1,1)"><g><path fill="none" stroke="none"/><text fill="#000000" stroke="none" font-family="Arial" font-size="13px" font-style="normal" font-weight="normal" text-decoration="none" x="61" y="152.5">+UseSpell()</text></g></g><g transform="translate(-46,-22) scale(1,1)"><g><path fill="none" stroke="none"/><text fill="#000000" stroke="none" font-family="Arial" font-size="13px" font-style="normal" font-weight="normal" text-decoration="none" x="61" y="167.5">+EndTurn()</text></g></g><g transform="translate(-46,-22) scale(1,1)"><g><path fill="none" stroke="none"/><text fill="#000000" stroke="none" font-family="Arial" font-size="13px" font-style="normal" font-weight="normal" text-decoration="none" x="61" y="182.5">+IsGameOver()</text></g></g><g transform="translate(-46,-22) scale(1,1)"><rect fill="#C0C0C0" stroke="none" x="207" y="575" width="50.919921875" height="44" opacity="0.2"/></g><g transform="translate(-46,-22) scale(1,1)"><rect fill="#ffffff" stroke="none" x="200" y="568" width="50.919921875" height="44"/></g><g transform="translate(-46,-22) scale(1,1)"><path fill="none" stroke="#000000" d="M 200 568 L 250.919921875 568 L 250.919921875 612 L 200 612 L 200 568 Z Z" stroke-miterlimit="10"/></g><g transform="translate(-46,-22) scale(1,1)"><path fill="none" stroke="#000000" d="M 200 593 L 250.919921875 593" stroke-miterlimit="10"/></g><g transform="translate(-46,-22) scale(1,1)"><path fill="none" stroke="#000000" d="M 200 603 L 250.919921875 603" stroke-miterlimit="10"/></g><g transform="translate(-46,-22) scale(1,1)"><g><path fill="none" stroke="none"/><text fill="#000000" stroke="none" font-family="Arial" font-size="13px" font-style="normal" font-weight="bold" text-decoration="none" x="207.035888671875" y="587.5">Player</text></g></g><g transform="translate(-46,-22) scale(1,1)"><rect fill="#C0C0C0" stroke="none" x="183" y="423" width="119.5634765625" height="44" opacity="0.2"/></g><g transform="translate(-46,-22) scale(1,1)"><rect fill="#ffffff" stroke="none" x="176" y="416" width="119.5634765625" height="44"/></g><g transform="translate(-46,-22) scale(1,1)"><path fill="none" stroke="#000000" d="M 176 416 L 295.5634765625 416 L 295.5634765625 460 L 176 460 L 176 416 Z Z" stroke-miterlimit="10"/></g><g transform="translate(-46,-22) scale(1,1)"><path fill="none" stroke="#000000" d="M 176 441 L 295.5634765625 441" stroke-miterlimit="10"/></g><g transform="translate(-46,-22) scale(1,1)"><path fill="none" stroke="#000000" d="M 176 451 L 295.5634765625 451" stroke-miterlimit="10"/></g><g transform="translate(-46,-22) scale(1,1)"><g><path fill="none" stroke="none"/><text fill="#000000" stroke="none" font-family="Arial" font-size="13px" font-style="normal" font-weight="bold" text-decoration="none" x="184.121337890625" y="435.5">PlayerEventProxy</text></g></g><g transform="translate(-46,-22) scale(1,1)"><rect fill="#C0C0C0" stroke="none" x="583" y="575" width="122.4326171875" height="44" opacity="0.2"/></g><g transform="translate(-46,-22) scale(1,1)"><rect fill="#ffffff" stroke="none" x="576" y="568" width="122.4326171875" height="44"/></g><g transform="translate(-46,-22) scale(1,1)"><path fill="none" stroke="#000000" d="M 576 568 L 698.4326171875 568 L 698.4326171875 612 L 576 612 L 576 568 Z Z" stroke-miterlimit="10"/></g><g transform="translate(-46,-22) scale(1,1)"><path fill="none" stroke="#000000" d="M 576 593 L 698.4326171875 593" stroke-miterlimit="10"/></g><g transform="translate(-46,-22) scale(1,1)"><path fill="none" stroke="#000000" d="M 576 603 L 698.4326171875 603" stroke-miterlimit="10"/></g><g transform="translate(-46,-22) scale(1,1)"><g><path fill="none" stroke="none"/><text fill="#000000" stroke="none" font-family="Arial" font-size="13px" font-style="italic" font-weight="bold" text-decoration="none" x="584.83544921875" y="587.5">AbstractCharacter</text></g></g><g transform="translate(-46,-22) scale(1,1)"><path fill="none" stroke="#000000" d="M 251 600 L 576 600" stroke-miterlimit="10"/></g><g transform="translate(-46,-22) scale(1,1)"><path fill="#FFFFFF" stroke="none" d="M 555.6746502847517 608.419035512032 L 576 600 L 555.6746502847517 591.580964487968"/></g><g transform="translate(-46,-22) scale(1,1)"><path fill="none" stroke="#000000" d="M 555.6746502847517 608.419035512032 L 576 600 L 555.6746502847517 591.580964487968 L 555.6746502847517 608.419035512032" stroke-miterlimit="10"/></g><g transform="translate(-46,-22) scale(1,1)"><path fill="none" stroke="#000000" d="M 99 187 L 99 590 L 200 590" stroke-miterlimit="10" stroke-dasharray="3"/></g><g transform="translate(-46,-22) scale(1,1)"><path fill="none" stroke="#000000" d="M 189.83732514237585 594.209517756016 L 200 590 L 189.83732514237585 585.790482243984" stroke-miterlimit="10"/></g><g transform="translate(-46,-22) scale(1,1)"><rect fill="#C0C0C0" stroke="none" x="791" y="151" width="92.11181640625" height="75" opacity="0.2"/></g><g transform="translate(-46,-22) scale(1,1)"><rect fill="#ffffff" stroke="none" x="784" y="144" width="92.11181640625" height="75"/></g><g transform="translate(-46,-22) scale(1,1)"><path fill="none" stroke="#000000" d="M 784 144 L 876.11181640625 144 L 876.11181640625 219 L 784 219 L 784 144 Z Z" stroke-miterlimit="10"/></g><g transform="translate(-46,-22) scale(1,1)"><path fill="none" stroke="#000000" d="M 784 182 L 876.11181640625 182" stroke-miterlimit="10"/></g><g transform="translate(-46,-22) scale(1,1)"><g><path fill="none" stroke="none"/><text fill="#000000" stroke="none" font-family="Arial" font-size="13px" font-style="normal" font-weight="normal" text-decoration="none" x="797.8955078125" y="161.5">«interface»</text></g></g><g transform="translate(-46,-22) scale(1,1)"><g><path fill="none" stroke="none"/><text fill="#000000" stroke="none" font-family="Arial" font-size="13px" font-style="normal" font-weight="bold" text-decoration="none" x="806.931396484375" y="176.5">IHpAble</text></g></g><g transform="translate(-46,-22) scale(1,1)"><g><path fill="none" stroke="none"/><text fill="#000000" stroke="none" font-family="Arial" font-size="13px" font-style="normal" font-weight="normal" text-decoration="none" x="789" y="199.5">+Hp()</text></g></g><g transform="translate(-46,-22) scale(1,1)"><g><path fill="none" stroke="none"/><text fill="#000000" stroke="none" font-family="Arial" font-size="13px" font-style="normal" font-weight="normal" text-decoration="none" x="789" y="214.5">+MaxHp()</text></g></g><g transform="translate(-46,-22) scale(1,1)"><rect fill="#C0C0C0" stroke="none" x="647" y="151" width="89.57080078125" height="75" opacity="0.2"/></g><g transform="translate(-46,-22) scale(1,1)"><rect fill="#ffffff" stroke="none" x="640" y="144" width="89.57080078125" height="75"/></g><g transform="translate(-46,-22) scale(1,1)"><path fill="none" stroke="#000000" d="M 640 144 L 729.57080078125 144 L 729.57080078125 219 L 640 219 L 640 144 Z Z" stroke-miterlimit="10"/></g><g transform="translate(-46,-22) scale(1,1)"><path fill="none" stroke="#000000" d="M 640 182 L 729.57080078125 182" stroke-miterlimit="10"/></g><g transform="translate(-46,-22) scale(1,1)"><g><path fill="none" stroke="none"/><text fill="#000000" stroke="none" font-family="Arial" font-size="13px" font-style="normal" font-weight="normal" text-decoration="none" x="652.625" y="161.5">«interface»</text></g></g><g transform="translate(-46,-22) scale(1,1)"><g><path fill="none" stroke="none"/><text fill="#000000" stroke="none" font-family="Arial" font-size="13px" font-style="normal" font-weight="bold" text-decoration="none" x="660.9404296875" y="176.5">IMpAble</text></g></g><g transform="translate(-46,-22) scale(1,1)"><g><path fill="none" stroke="none"/><text fill="#000000" stroke="none" font-family="Arial" font-size="13px" font-style="normal" font-weight="normal" text-decoration="none" x="645" y="199.5">+Mp()</text></g></g><g transform="translate(-46,-22) scale(1,1)"><g><path fill="none" stroke="none"/><text fill="#000000" stroke="none" font-family="Arial" font-size="13px" font-style="normal" font-weight="normal" text-decoration="none" x="645" y="214.5">+MaxMp()</text></g></g><g transform="translate(-46,-22) scale(1,1)"><rect fill="#C0C0C0" stroke="none" x="927" y="151" width="89.57080078125" height="60" opacity="0.2"/></g><g transform="translate(-46,-22) scale(1,1)"><rect fill="#ffffff" stroke="none" x="920" y="144" width="89.57080078125" height="60"/></g><g transform="translate(-46,-22) scale(1,1)"><path fill="none" stroke="#000000" d="M 920 144 L 1009.57080078125 144 L 1009.57080078125 204 L 920 204 L 920 144 Z Z" stroke-miterlimit="10"/></g><g transform="translate(-46,-22) scale(1,1)"><path fill="none" stroke="#000000" d="M 920 182 L 1009.57080078125 182" stroke-miterlimit="10"/></g><g transform="translate(-46,-22) scale(1,1)"><g><path fill="none" stroke="none"/><text fill="#000000" stroke="none" font-family="Arial" font-size="13px" font-style="normal" font-weight="normal" text-decoration="none" x="932.625" y="161.5">«interface»</text></g></g><g transform="translate(-46,-22) scale(1,1)"><g><path fill="none" stroke="none"/><text fill="#000000" stroke="none" font-family="Arial" font-size="13px" font-style="normal" font-weight="bold" text-decoration="none" x="932.63134765625" y="176.5">INameAble</text></g></g><g transform="translate(-46,-22) scale(1,1)"><g><path fill="none" stroke="none"/><text fill="#000000" stroke="none" font-family="Arial" font-size="13px" font-style="normal" font-weight="normal" text-decoration="none" x="925" y="199.5">+Name()</text></g></g><g transform="translate(-46,-22) scale(1,1)"><rect fill="#C0C0C0" stroke="none" x="359" y="39" width="105.09716796875" height="47" opacity="0.2"/></g><g transform="translate(-46,-22) scale(1,1)"><rect fill="#ffffff" stroke="none" x="352" y="32" width="105.09716796875" height="47"/></g><g transform="translate(-46,-22) scale(1,1)"><path fill="none" stroke="#000000" d="M 352 32 L 457.09716796875 32 L 457.09716796875 79 L 352 79 L 352 32 Z Z" stroke-miterlimit="10"/></g><g transform="translate(-46,-22) scale(1,1)"><path fill="none" stroke="#000000" d="M 352 70 L 457.09716796875 70" stroke-miterlimit="10"/></g><g transform="translate(-46,-22) scale(1,1)"><g><path fill="none" stroke="none"/><text fill="#000000" stroke="none" font-family="Arial" font-size="13px" font-style="normal" font-weight="normal" text-decoration="none" x="372.38818359375" y="49.5">«interface»</text></g></g><g transform="translate(-46,-22) scale(1,1)"><g><path fill="none" stroke="none"/><text fill="#000000" stroke="none" font-family="Arial" font-size="13px" font-style="normal" font-weight="bold" text-decoration="none" x="359.3818359375" y="64.5">IStatsEvaluable</text></g></g><g transform="translate(-46,-22) scale(1,1)"><path fill="none" stroke="#000000" d="M 457 48 L 835 48 L 835 144" stroke-miterlimit="10" stroke-dasharray="3"/></g><g transform="translate(-46,-22) scale(1,1)"><path fill="#FFFFFF" stroke="none" d="M 826.580964487968 123.67465028475169 L 835 144 L 843.419035512032 123.67465028475169"/></g><g transform="translate(-46,-22) scale(1,1)"><path fill="none" stroke="#000000" d="M 826.580964487968 123.67465028475169 L 835 144 L 843.419035512032 123.67465028475169 L 826.580964487968 123.67465028475169" stroke-miterlimit="10"/></g><g transform="translate(-46,-22) scale(1,1)"><path fill="none" stroke="#000000" d="M 457 55 L 684 55 L 684 144" stroke-miterlimit="10" stroke-dasharray="3"/></g><g transform="translate(-46,-22) scale(1,1)"><path fill="#FFFFFF" stroke="none" d="M 675.580964487968 123.67465028475169 L 684 144 L 692.419035512032 123.67465028475169"/></g><g transform="translate(-46,-22) scale(1,1)"><path fill="none" stroke="#000000" d="M 675.580964487968 123.67465028475169 L 684 144 L 692.419035512032 123.67465028475169 L 675.580964487968 123.67465028475169" stroke-miterlimit="10"/></g><g transform="translate(-46,-22) scale(1,1)"><path fill="none" stroke="#000000" d="M 457 40 L 952 40 L 952 144" stroke-miterlimit="10" stroke-dasharray="3"/></g><g transform="translate(-46,-22) scale(1,1)"><path fill="#FFFFFF" stroke="none" d="M 943.580964487968 123.67465028475169 L 952 144 L 960.419035512032 123.67465028475169"/></g><g transform="translate(-46,-22) scale(1,1)"><path fill="none" stroke="#000000" d="M 943.580964487968 123.67465028475169 L 952 144 L 960.419035512032 123.67465028475169 L 943.580964487968 123.67465028475169" stroke-miterlimit="10"/></g><g transform="translate(-46,-22) scale(1,1)"><rect fill="#C0C0C0" stroke="none" x="631" y="295" width="115.58349609375" height="75" opacity="0.2"/></g><g transform="translate(-46,-22) scale(1,1)"><rect fill="#ffffff" stroke="none" x="624" y="288" width="115.58349609375" height="75"/></g><g transform="translate(-46,-22) scale(1,1)"><path fill="none" stroke="#000000" d="M 624 288 L 739.58349609375 288 L 739.58349609375 363 L 624 363 L 624 288 Z Z" stroke-miterlimit="10"/></g><g transform="translate(-46,-22) scale(1,1)"><path fill="none" stroke="#000000" d="M 624 326 L 739.58349609375 326" stroke-miterlimit="10"/></g><g transform="translate(-46,-22) scale(1,1)"><g><path fill="none" stroke="none"/><text fill="#000000" stroke="none" font-family="Arial" font-size="13px" font-style="normal" font-weight="normal" text-decoration="none" x="649.63134765625" y="305.5">«interface»</text></g></g><g transform="translate(-46,-22) scale(1,1)"><g><path fill="none" stroke="none"/><text fill="#000000" stroke="none" font-family="Arial" font-size="13px" font-style="normal" font-weight="bold" text-decoration="none" x="636.989990234375" y="320.5">IMpInteractable</text></g></g><g transform="translate(-46,-22) scale(1,1)"><g><path fill="none" stroke="none"/><text fill="#000000" stroke="none" font-family="Arial" font-size="13px" font-style="normal" font-weight="normal" text-decoration="none" x="629" y="343.5">+BurnMana()</text></g></g><g transform="translate(-46,-22) scale(1,1)"><g><path fill="none" stroke="none"/><text fill="#000000" stroke="none" font-family="Arial" font-size="13px" font-style="normal" font-weight="normal" text-decoration="none" x="629" y="358.5">+ReplenishMana()</text></g></g><g transform="translate(-46,-22) scale(1,1)"><rect fill="#C0C0C0" stroke="none" x="783" y="295" width="102.91357421875" height="75" opacity="0.2"/></g><g transform="translate(-46,-22) scale(1,1)"><rect fill="#ffffff" stroke="none" x="776" y="288" width="102.91357421875" height="75"/></g><g transform="translate(-46,-22) scale(1,1)"><path fill="none" stroke="#000000" d="M 776 288 L 878.91357421875 288 L 878.91357421875 363 L 776 363 L 776 288 Z Z" stroke-miterlimit="10"/></g><g transform="translate(-46,-22) scale(1,1)"><path fill="none" stroke="#000000" d="M 776 326 L 878.91357421875 326" stroke-miterlimit="10"/></g><g transform="translate(-46,-22) scale(1,1)"><g><path fill="none" stroke="none"/><text fill="#000000" stroke="none" font-family="Arial" font-size="13px" font-style="normal" font-weight="normal" text-decoration="none" x="795.29638671875" y="305.5">«interface»</text></g></g><g transform="translate(-46,-22) scale(1,1)"><g><path fill="none" stroke="none"/><text fill="#000000" stroke="none" font-family="Arial" font-size="13px" font-style="normal" font-weight="bold" text-decoration="none" x="783.37548828125" y="320.5">IHpInteractable</text></g></g><g transform="translate(-46,-22) scale(1,1)"><g><path fill="none" stroke="none"/><text fill="#000000" stroke="none" font-family="Arial" font-size="13px" font-style="normal" font-weight="normal" text-decoration="none" x="781" y="343.5">+TakeDamage()</text></g></g><g transform="translate(-46,-22) scale(1,1)"><g><path fill="none" stroke="none"/><text fill="#000000" stroke="none" font-family="Arial" font-size="13px" font-style="normal" font-weight="normal" text-decoration="none" x="781" y="358.5">+TakeHealing()</text></g></g><g transform="translate(-46,-22) scale(1,1)"><path fill="none" stroke="#000000" d="M 683 288 L 683 219" stroke-miterlimit="10" stroke-dasharray="3"/></g><g transform="translate(-46,-22) scale(1,1)"><path fill="#FFFFFF" stroke="none" d="M 691.419035512032 239.3253497152483 L 683 219 L 674.580964487968 239.3253497152483"/></g><g transform="translate(-46,-22) scale(1,1)"><path fill="none" stroke="#000000" d="M 691.419035512032 239.3253497152483 L 683 219 L 674.580964487968 239.3253497152483 L 691.419035512032 239.3253497152483" stroke-miterlimit="10"/></g><g transform="translate(-46,-22) scale(1,1)"><path fill="none" stroke="#000000" d="M 829 288 L 829 219" stroke-miterlimit="10" stroke-dasharray="3"/></g><g transform="translate(-46,-22) scale(1,1)"><path fill="#FFFFFF" stroke="none" d="M 837.419035512032 239.3253497152483 L 829 219 L 820.580964487968 239.3253497152483"/></g><g transform="translate(-46,-22) scale(1,1)"><path fill="none" stroke="#000000" d="M 837.419035512032 239.3253497152483 L 829 219 L 820.580964487968 239.3253497152483 L 837.419035512032 239.3253497152483" stroke-miterlimit="10"/></g><g transform="translate(-46,-22) scale(1,1)"><rect fill="#C0C0C0" stroke="none" x="799" y="415" width="73.32080078125" height="47" opacity="0.2"/></g><g transform="translate(-46,-22) scale(1,1)"><rect fill="#ffffff" stroke="none" x="792" y="408" width="73.32080078125" height="47"/></g><g transform="translate(-46,-22) scale(1,1)"><path fill="none" stroke="#000000" d="M 792 408 L 865.32080078125 408 L 865.32080078125 455 L 792 455 L 792 408 Z Z" stroke-miterlimit="10"/></g><g transform="translate(-46,-22) scale(1,1)"><path fill="none" stroke="#000000" d="M 792 446 L 865.32080078125 446" stroke-miterlimit="10"/></g><g transform="translate(-46,-22) scale(1,1)"><g><path fill="none" stroke="none"/><text fill="#000000" stroke="none" font-family="Arial" font-size="13px" font-style="normal" font-weight="normal" text-decoration="none" x="796.5" y="425.5">«interface»</text></g></g><g transform="translate(-46,-22) scale(1,1)"><g><path fill="none" stroke="none"/><text fill="#000000" stroke="none" font-family="Arial" font-size="13px" font-style="normal" font-weight="bold" text-decoration="none" x="798.3154296875" y="440.5">ICharacter</text></g></g><g transform="translate(-46,-22) scale(1,1)"><path fill="none" stroke="#000000" d="M 827 408 L 827 363" stroke-miterlimit="10" stroke-dasharray="3"/></g><g transform="translate(-46,-22) scale(1,1)"><path fill="#FFFFFF" stroke="none" d="M 835.419035512032 383.3253497152483 L 827 363 L 818.580964487968 383.3253497152483"/></g><g transform="translate(-46,-22) scale(1,1)"><path fill="none" stroke="#000000" d="M 835.419035512032 383.3253497152483 L 827 363 L 818.580964487968 383.3253497152483 L 835.419035512032 383.3253497152483" stroke-miterlimit="10"/></g><g transform="translate(-46,-22) scale(1,1)"><path fill="none" stroke="#000000" d="M 792 416 L 728 416 L 728 363" stroke-miterlimit="10" stroke-dasharray="3"/></g><g transform="translate(-46,-22) scale(1,1)"><path fill="#FFFFFF" stroke="none" d="M 736.419035512032 383.3253497152483 L 728 363 L 719.580964487968 383.3253497152483"/></g><g transform="translate(-46,-22) scale(1,1)"><path fill="none" stroke="#000000" d="M 736.419035512032 383.3253497152483 L 728 363 L 719.580964487968 383.3253497152483 L 736.419035512032 383.3253497152483" stroke-miterlimit="10"/></g><g transform="translate(-46,-22) scale(1,1)"><path fill="none" stroke="#000000" d="M 865 431 L 964 431 L 964 204" stroke-miterlimit="10" stroke-dasharray="3"/></g><g transform="translate(-46,-22) scale(1,1)"><path fill="#FFFFFF" stroke="none" d="M 972.419035512032 224.3253497152483 L 964 204 L 955.580964487968 224.3253497152483"/></g><g transform="translate(-46,-22) scale(1,1)"><path fill="none" stroke="#000000" d="M 972.419035512032 224.3253497152483 L 964 204 L 955.580964487968 224.3253497152483 L 972.419035512032 224.3253497152483" stroke-miterlimit="10"/></g><g transform="translate(-46,-22) scale(1,1)"><path fill="none" stroke="#000000" d="M 698 590 L 828 590 L 828 455" stroke-miterlimit="10" stroke-dasharray="3"/></g><g transform="translate(-46,-22) scale(1,1)"><path fill="#FFFFFF" stroke="none" d="M 836.419035512032 475.3253497152483 L 828 455 L 819.580964487968 475.3253497152483"/></g><g transform="translate(-46,-22) scale(1,1)"><path fill="none" stroke="#000000" d="M 836.419035512032 475.3253497152483 L 828 455 L 819.580964487968 475.3253497152483 L 836.419035512032 475.3253497152483" stroke-miterlimit="10"/></g><g transform="translate(-46,-22) scale(1,1)"><rect fill="#C0C0C0" stroke="none" x="423" y="487" width="106.5380859375" height="90" opacity="0.2"/></g><g transform="translate(-46,-22) scale(1,1)"><rect fill="#ffffff" stroke="none" x="416" y="480" width="106.5380859375" height="90"/></g><g transform="translate(-46,-22) scale(1,1)"><path fill="none" stroke="#000000" d="M 416 480 L 522.5380859375 480 L 522.5380859375 570 L 416 570 L 416 480 Z Z" stroke-miterlimit="10"/></g><g transform="translate(-46,-22) scale(1,1)"><path fill="none" stroke="#000000" d="M 416 518 L 522.5380859375 518" stroke-miterlimit="10"/></g><g transform="translate(-46,-22) scale(1,1)"><g><path fill="none" stroke="none"/><text fill="#000000" stroke="none" font-family="Arial" font-size="13px" font-style="normal" font-weight="normal" text-decoration="none" x="437.108642578125" y="497.5">«interface»</text></g></g><g transform="translate(-46,-22) scale(1,1)"><g><path fill="none" stroke="none"/><text fill="#000000" stroke="none" font-family="Arial" font-size="13px" font-style="normal" font-weight="bold" text-decoration="none" x="422.66455078125" y="512.5">IMageCharacter</text></g></g><g transform="translate(-46,-22) scale(1,1)"><g><path fill="none" stroke="none"/><text fill="#000000" stroke="none" font-family="Arial" font-size="13px" font-style="normal" font-weight="normal" text-decoration="none" x="421" y="535.5">+CastSpell()</text></g></g><g transform="translate(-46,-22) scale(1,1)"><g><path fill="none" stroke="none"/><text fill="#000000" stroke="none" font-family="Arial" font-size="13px" font-style="normal" font-weight="normal" text-decoration="none" x="421" y="550.5">+GetSpell()</text></g></g><g transform="translate(-46,-22) scale(1,1)"><g><path fill="none" stroke="none"/><text fill="#000000" stroke="none" font-family="Arial" font-size="13px" font-style="normal" font-weight="normal" text-decoration="none" x="421" y="565.5">+GetSpells()</text></g></g><g transform="translate(-46,-22) scale(1,1)"><path fill="none" stroke="#000000" d="M 208 568 L 208 460" stroke-miterlimit="10"/></g><g transform="translate(-46,-22) scale(1,1)"><path fill="#000000" stroke="none" d="M 212.209517756016 470.16267485762415 L 208 460 L 203.790482243984 470.16267485762415 L 208 482"/></g><g transform="translate(-46,-22) scale(1,1)"><path fill="none" stroke="#000000" d="M 212.209517756016 470.16267485762415 L 208 460 L 203.790482243984 470.16267485762415 L 208 482 L 212.209517756016 470.16267485762415" stroke-miterlimit="10"/></g><g transform="translate(-46,-22) scale(1,1)"><path fill="none" stroke="#000000" d="M 155 56 L 352 56" stroke-miterlimit="10" stroke-dasharray="3"/></g><g transform="translate(-46,-22) scale(1,1)"><path fill="none" stroke="#000000" d="M 341.83732514237585 60.20951775601599 L 352 56 L 341.83732514237585 51.790482243984016" stroke-miterlimit="10"/></g><g transform="translate(-46,-22) scale(1,1)"><path fill="none" stroke="#000000" d="M 176 438 L 120 438 L 120 187" stroke-miterlimit="10"/></g><g transform="translate(-46,-22) scale(1,1)"><path fill="#000000" stroke="none" d="M 124.20951775601598 197.16267485762415 L 120 187 L 115.79048224398402 197.16267485762415 L 120 209"/></g><g transform="translate(-46,-22) scale(1,1)"><path fill="none" stroke="#000000" d="M 124.20951775601598 197.16267485762415 L 120 187 L 115.79048224398402 197.16267485762415 L 120 209 L 124.20951775601598 197.16267485762415" stroke-miterlimit="10"/></g><g transform="translate(-46,-22) scale(1,1)"><rect fill="#C0C0C0" stroke="none" x="471" y="223" width="89.57080078125" height="102" opacity="0.2"/></g><g transform="translate(-46,-22) scale(1,1)"><rect fill="#ffffff" stroke="none" x="464" y="216" width="89.57080078125" height="102"/></g><g transform="translate(-46,-22) scale(1,1)"><path fill="none" stroke="#000000" d="M 464 216 L 553.57080078125 216 L 553.57080078125 318 L 464 318 L 464 216 Z Z" stroke-miterlimit="10"/></g><g transform="translate(-46,-22) scale(1,1)"><path fill="none" stroke="#000000" d="M 464 241 L 553.57080078125 241" stroke-miterlimit="10"/></g><g transform="translate(-46,-22) scale(1,1)"><path fill="none" stroke="#000000" d="M 464 251 L 553.57080078125 251" stroke-miterlimit="10"/></g><g transform="translate(-46,-22) scale(1,1)"><g><path fill="none" stroke="none"/><text fill="#000000" stroke="none" font-family="Arial" font-size="13px" font-style="normal" font-weight="bold" text-decoration="none" x="494.331787109375" y="235.5">Spell</text></g></g><g transform="translate(-46,-22) scale(1,1)"><g><path fill="none" stroke="none"/><text fill="#000000" stroke="none" font-family="Arial" font-size="13px" font-style="normal" font-weight="normal" text-decoration="none" x="469" y="268.5">+Cast()</text></g></g><g transform="translate(-46,-22) scale(1,1)"><g><path fill="none" stroke="none"/><text fill="#000000" stroke="none" font-family="Arial" font-size="13px" font-style="normal" font-weight="normal" text-decoration="none" x="469" y="283.5">+Name()</text></g></g><g transform="translate(-46,-22) scale(1,1)"><g><path fill="none" stroke="none"/><text fill="#000000" stroke="none" font-family="Arial" font-size="13px" font-style="normal" font-weight="normal" text-decoration="none" x="469" y="298.5">+Manacost()</text></g></g><g transform="translate(-46,-22) scale(1,1)"><g><path fill="none" stroke="none"/><text fill="#000000" stroke="none" font-family="Arial" font-size="13px" font-style="normal" font-weight="normal" text-decoration="none" x="469" y="313.5">+Cooldown()</text></g></g><g transform="translate(-46,-22) scale(1,1)"><rect fill="#C0C0C0" stroke="none" x="359" y="207" width="76.9453125" height="75" opacity="0.2"/></g><g transform="translate(-46,-22) scale(1,1)"><rect fill="#ffffff" stroke="none" x="352" y="200" width="76.9453125" height="75"/></g><g transform="translate(-46,-22) scale(1,1)"><path fill="none" stroke="#000000" d="M 352 200 L 428.9453125 200 L 428.9453125 275 L 352 275 L 352 200 Z Z" stroke-miterlimit="10"/></g><g transform="translate(-46,-22) scale(1,1)"><path fill="none" stroke="#000000" d="M 352 238 L 428.9453125 238" stroke-miterlimit="10"/></g><g transform="translate(-46,-22) scale(1,1)"><g><path fill="none" stroke="none"/><text fill="#000000" stroke="none" font-family="Arial" font-size="13px" font-style="normal" font-weight="normal" text-decoration="none" x="356.5" y="217.5">«dataType»</text></g></g><g transform="translate(-46,-22) scale(1,1)"><g><path fill="none" stroke="none"/><text fill="#000000" stroke="none" font-family="Arial" font-size="13px" font-style="normal" font-weight="bold" text-decoration="none" x="359.518310546875" y="232.5">SpellEffect</text></g></g><g transform="translate(-46,-22) scale(1,1)"><g><path fill="none" stroke="none"/><text fill="#000000" stroke="none" font-family="Arial" font-size="13px" font-style="normal" font-weight="normal" text-decoration="none" x="357" y="255.5">+Effect</text></g></g><g transform="translate(-46,-22) scale(1,1)"><g><path fill="none" stroke="none"/><text fill="#000000" stroke="none" font-family="Arial" font-size="13px" font-style="normal" font-weight="normal" text-decoration="none" x="357" y="270.5">+Params</text></g></g><g transform="translate(-46,-22) scale(1,1)"><rect fill="#C0C0C0" stroke="none" x="335" y="311" width="114.49169921875" height="37" opacity="0.2"/></g><g transform="translate(-46,-22) scale(1,1)"><rect fill="#ffffff" stroke="none" x="328" y="304" width="114.49169921875" height="37"/></g><g transform="translate(-46,-22) scale(1,1)"><path fill="none" stroke="#000000" d="M 328 304 L 442.49169921875 304 L 442.49169921875 341 L 328 341 L 328 304 Z Z" stroke-miterlimit="10"/></g><g transform="translate(-46,-22) scale(1,1)"><g><path fill="none" stroke="none"/><text fill="#000000" stroke="none" font-family="Arial" font-size="13px" font-style="normal" font-weight="normal" text-decoration="none" x="339.726806640625" y="321.5">«primitiveType»</text></g></g><g transform="translate(-46,-22) scale(1,1)"><g><path fill="none" stroke="none"/><text fill="#000000" stroke="none" font-family="Arial" font-size="13px" font-style="normal" font-weight="bold" text-decoration="none" x="336.22607421875" y="336.5">BaseSpellEffects</text></g></g><g transform="translate(-46,-22) scale(1,1)"><path fill="none" stroke="#000000" d="M 388 275 L 388 304" stroke-miterlimit="10" stroke-dasharray="3"/></g><g transform="translate(-46,-22) scale(1,1)"><path fill="none" stroke="#000000" d="M 383.790482243984 293.83732514237585 L 388 304 L 392.209517756016 293.83732514237585" stroke-miterlimit="10"/></g><g transform="translate(-46,-22) scale(1,1)"><path fill="none" stroke="#000000" d="M 429 236 L 464 236" stroke-miterlimit="10"/></g><g transform="translate(-46,-22) scale(1,1)"><path fill="#FFFFFF" stroke="none" d="M 453.83732514237585 240.209517756016 L 464 236 L 453.83732514237585 231.790482243984 L 442 236"/></g><g transform="translate(-46,-22) scale(1,1)"><path fill="none" stroke="#000000" d="M 453.83732514237585 240.209517756016 L 464 236 L 453.83732514237585 231.790482243984 L 442 236 L 453.83732514237585 240.209517756016" stroke-miterlimit="10"/></g><g transform="translate(-46,-22) scale(1,1)"><rect fill="#C0C0C0" stroke="none" x="407" y="367" width="138.70166015625" height="102" opacity="0.2"/></g><g transform="translate(-46,-22) scale(1,1)"><rect fill="#ffffff" stroke="none" x="400" y="360" width="138.70166015625" height="102"/></g><g transform="translate(-46,-22) scale(1,1)"><path fill="none" stroke="#000000" d="M 400 360 L 538.70166015625 360 L 538.70166015625 462 L 400 462 L 400 360 Z Z" stroke-miterlimit="10"/></g><g transform="translate(-46,-22) scale(1,1)"><path fill="none" stroke="#000000" d="M 400 385 L 538.70166015625 385" stroke-miterlimit="10"/></g><g transform="translate(-46,-22) scale(1,1)"><path fill="none" stroke="#000000" d="M 400 395 L 538.70166015625 395" stroke-miterlimit="10"/></g><g transform="translate(-46,-22) scale(1,1)"><g><path fill="none" stroke="none"/><text fill="#000000" stroke="none" font-family="Arial" font-size="13px" font-style="normal" font-weight="bold" text-decoration="none" x="417.319091796875" y="379.5">SpellOnCooldown</text></g></g><g transform="translate(-46,-22) scale(1,1)"><g><path fill="none" stroke="none"/><text fill="#000000" stroke="none" font-family="Arial" font-size="13px" font-style="normal" font-weight="normal" text-decoration="none" x="405" y="412.5">+Cast()</text></g></g><g transform="translate(-46,-22) scale(1,1)"><g><path fill="none" stroke="none"/><text fill="#000000" stroke="none" font-family="Arial" font-size="13px" font-style="normal" font-weight="normal" text-decoration="none" x="405" y="427.5">+GetCooldown()</text></g></g><g transform="translate(-46,-22) scale(1,1)"><g><path fill="none" stroke="none"/><text fill="#000000" stroke="none" font-family="Arial" font-size="13px" font-style="normal" font-weight="normal" text-decoration="none" x="405" y="442.5">+IsAvailable()</text></g></g><g transform="translate(-46,-22) scale(1,1)"><g><path fill="none" stroke="none"/><text fill="#000000" stroke="none" font-family="Arial" font-size="13px" font-style="normal" font-weight="normal" text-decoration="none" x="405" y="457.5">+DecreaseCooldown()</text></g></g><g transform="translate(-46,-22) scale(1,1)"><path fill="none" stroke="#000000" d="M 502 318 L 502 360" stroke-miterlimit="10"/></g><g transform="translate(-46,-22) scale(1,1)"><path fill="#000000" stroke="none" d="M 497.790482243984 349.83732514237585 L 502 360 L 506.209517756016 349.83732514237585 L 502 338"/></g><g transform="translate(-46,-22) scale(1,1)"><path fill="none" stroke="#000000" d="M 497.790482243984 349.83732514237585 L 502 360 L 506.209517756016 349.83732514237585 L 502 338 L 497.790482243984 349.83732514237585" stroke-miterlimit="10"/></g><g transform="translate(-46,-22) scale(1,1)"><path fill="none" stroke="#000000" d="M 469 480 L 469 462" stroke-miterlimit="10" stroke-dasharray="3"/></g><g transform="translate(-46,-22) scale(1,1)"><path fill="none" stroke="#000000" d="M 473.209517756016 472.16267485762415 L 469 462 L 464.790482243984 472.16267485762415" stroke-miterlimit="10"/></g><g transform="translate(-46,-22) scale(1,1)"><path fill="none" stroke="#000000" d="M 275 460 L 275 504 L 416 504" stroke-miterlimit="10" stroke-dasharray="3"/></g><g transform="translate(-46,-22) scale(1,1)"><path fill="#FFFFFF" stroke="none" d="M 395.6746502847517 512.419035512032 L 416 504 L 395.6746502847517 495.580964487968"/></g><g transform="translate(-46,-22) scale(1,1)"><path fill="none" stroke="#000000" d="M 395.6746502847517 512.419035512032 L 416 504 L 395.6746502847517 495.580964487968 L 395.6746502847517 512.419035512032" stroke-miterlimit="10"/></g><g transform="translate(-46,-22) scale(1,1)"><path fill="none" stroke="#000000" d="M 251 584 L 376 584 L 376 552 L 416 552" stroke-miterlimit="10" stroke-dasharray="3"/></g><g transform="translate(-46,-22) scale(1,1)"><path fill="#FFFFFF" stroke="none" d="M 395.6746502847517 560.419035512032 L 416 552 L 395.6746502847517 543.580964487968"/></g><g transform="translate(-46,-22) scale(1,1)"><path fill="none" stroke="#000000" d="M 395.6746502847517 560.419035512032 L 416 552 L 395.6746502847517 543.580964487968 L 395.6746502847517 560.419035512032" stroke-miterlimit="10"/></g><g transform="translate(-46,-22) scale(1,1)"><path fill="none" stroke="#000000" d="M 554 280 L 584 280 L 584 325 L 624 325" stroke-miterlimit="10" stroke-dasharray="3"/></g><g transform="translate(-46,-22) scale(1,1)"><path fill="none" stroke="#000000" d="M 613.8373251423759 329.209517756016 L 624 325 L 613.8373251423758 320.790482243984" stroke-miterlimit="10"/></g><g transform="translate(-46,-22) scale(1,1)"><path fill="none" stroke="#000000" d="M 539 438 L 624 438 L 624 363" stroke-miterlimit="10" stroke-dasharray="3"/></g><g transform="translate(-46,-22) scale(1,1)"><path fill="none" stroke="#000000" d="M 628.209517756016 373.16267485762415 L 624 363 L 619.790482243984 373.16267485762415" stroke-miterlimit="10"/></g><g transform="translate(-46,-22) scale(1,1)"><path fill="none" stroke="#000000" d="M 523 520 L 792 520 L 792 455" stroke-miterlimit="10" stroke-dasharray="3"/></g><g transform="translate(-46,-22) scale(1,1)"><path fill="#FFFFFF" stroke="none" d="M 800.419035512032 475.3253497152483 L 792 455 L 783.580964487968 475.3253497152483"/></g><g transform="translate(-46,-22) scale(1,1)"><path fill="none" stroke="#000000" d="M 800.419035512032 475.3253497152483 L 792 455 L 783.580964487968 475.3253497152483 L 800.419035512032 475.3253497152483" stroke-miterlimit="10"/></g><g transform="translate(-46,-22) scale(1,1)"><path fill="none" stroke="#000000" d="M 192 216 L 144 216 L 144 187" stroke-miterlimit="10"/></g><g transform="translate(-46,-22) scale(1,1)"><path fill="#000000" stroke="none" d="M 148.209517756016 197.16267485762415 L 144 187 L 139.790482243984 197.16267485762415 L 144 209"/></g><g transform="translate(-46,-22) scale(1,1)"><path fill="none" stroke="#000000" d="M 148.209517756016 197.16267485762415 L 144 187 L 139.790482243984 197.16267485762415 L 144 209 L 148.209517756016 197.16267485762415" stroke-miterlimit="10"/></g><g transform="translate(-46,-22) scale(1,1)"><rect fill="#C0C0C0" stroke="none" x="207" y="311" width="92.8017578125" height="60" opacity="0.2"/></g><g transform="translate(-46,-22) scale(1,1)"><rect fill="#ffffff" stroke="none" x="200" y="304" width="92.8017578125" height="60"/></g><g transform="translate(-46,-22) scale(1,1)"><path fill="none" stroke="#000000" d="M 200 304 L 292.8017578125 304 L 292.8017578125 364 L 200 364 L 200 304 Z Z" stroke-miterlimit="10"/></g><g transform="translate(-46,-22) scale(1,1)"><path fill="none" stroke="#000000" d="M 200 342 L 292.8017578125 342" stroke-miterlimit="10"/></g><g transform="translate(-46,-22) scale(1,1)"><g><path fill="none" stroke="none"/><text fill="#000000" stroke="none" font-family="Arial" font-size="13px" font-style="normal" font-weight="normal" text-decoration="none" x="214.240478515625" y="321.5">«interface»</text></g></g><g transform="translate(-46,-22) scale(1,1)"><g><path fill="none" stroke="none"/><text fill="#000000" stroke="none" font-family="Arial" font-size="13px" font-style="normal" font-weight="bold" text-decoration="none" x="207.38818359375" y="336.5">IEventEmitter</text></g></g><g transform="translate(-46,-22) scale(1,1)"><g><path fill="none" stroke="none"/><text fill="#000000" stroke="none" font-family="Arial" font-size="13px" font-style="normal" font-weight="normal" text-decoration="none" x="205" y="359.5">+Emit()</text></g></g><g transform="translate(-46,-22) scale(1,1)"><path fill="none" stroke="#000000" d="M 240 256 L 240 304" stroke-miterlimit="10" stroke-dasharray="3"/></g><g transform="translate(-46,-22) scale(1,1)"><path fill="#FFFFFF" stroke="none" d="M 231.58096448796803 283.6746502847517 L 240 304 L 248.41903551203197 283.6746502847517"/></g><g transform="translate(-46,-22) scale(1,1)"><path fill="none" stroke="#000000" d="M 231.58096448796803 283.6746502847517 L 240 304 L 248.41903551203197 283.6746502847517 L 231.58096448796803 283.6746502847517" stroke-miterlimit="10"/></g><g transform="translate(-46,-22) scale(1,1)"><path fill="none" stroke="#000000" d="M 240 364 L 240 416" stroke-miterlimit="10"/></g><g transform="translate(-46,-22) scale(1,1)"><path fill="#000000" stroke="none" d="M 235.790482243984 405.83732514237585 L 240 416 L 244.209517756016 405.83732514237585 L 240 394"/></g><g transform="translate(-46,-22) scale(1,1)"><path fill="none" stroke="#000000" d="M 235.790482243984 405.83732514237585 L 240 416 L 244.209517756016 405.83732514237585 L 240 394 L 235.790482243984 405.83732514237585" stroke-miterlimit="10"/></g><g transform="translate(-46,-22) scale(1,1)"><path fill="none" stroke="#000000" d="M 400 432 L 328 432 L 328 536 L 225 536 L 225 568" stroke-miterlimit="10"/></g><g transform="translate(-46,-22) scale(1,1)"><path fill="#FFFFFF" stroke="none" d="M 220.790482243984 557.8373251423759 L 225 568 L 229.209517756016 557.8373251423759 L 225 546"/></g><g transform="translate(-46,-22) scale(1,1)"><path fill="none" stroke="#000000" d="M 220.790482243984 557.8373251423759 L 225 568 L 229.209517756016 557.8373251423759 L 225 546 L 220.790482243984 557.8373251423759" stroke-miterlimit="10"/></g><g transform="translate(-46,-22) scale(1,1)"><rect fill="#C0C0C0" stroke="none" x="279" y="111" width="118.814453125" height="57" opacity="0.2"/></g><g transform="translate(-46,-22) scale(1,1)"><rect fill="#ffffff" stroke="none" x="272" y="104" width="118.814453125" height="57"/></g><g transform="translate(-46,-22) scale(1,1)"><path fill="none" stroke="#000000" d="M 272 104 L 390.814453125 104 L 390.814453125 161 L 272 161 L 272 104 Z Z" stroke-miterlimit="10"/></g><g transform="translate(-46,-22) scale(1,1)"><path fill="none" stroke="#000000" d="M 272 129 L 390.814453125 129" stroke-miterlimit="10"/></g><g transform="translate(-46,-22) scale(1,1)"><path fill="none" stroke="#000000" d="M 272 139 L 390.814453125 139" stroke-miterlimit="10"/></g><g transform="translate(-46,-22) scale(1,1)"><g><path fill="none" stroke="none"/><text fill="#000000" stroke="none" font-family="Arial" font-size="13px" font-style="normal" font-weight="bold" text-decoration="none" x="280.2197265625" y="123.5">UsableSpellEffect</text></g></g><g transform="translate(-46,-22) scale(1,1)"><g><path fill="none" stroke="none"/><text fill="#000000" stroke="none" font-family="Arial" font-size="13px" font-style="normal" font-weight="normal" text-decoration="none" x="277" y="156.5">+Use()</text></g></g><g transform="translate(-46,-22) scale(1,1)"><path fill="none" stroke="#000000" d="M 507 216 L 507 136 L 391 136" stroke-miterlimit="10" stroke-dasharray="3"/></g><g transform="translate(-46,-22) scale(1,1)"><path fill="none" stroke="#000000" d="M 401.16267485762415 131.790482243984 L 391 136 L 401.16267485762415 140.209517756016" stroke-miterlimit="10"/></g><g transform="translate(-46,-22) scale(1,1)"><path fill="none" stroke="#000000" d="M 272 129 L 155 129" stroke-miterlimit="10"/></g><g transform="translate(-46,-22) scale(1,1)"><path fill="#FFFFFF" stroke="none" d="M 165.16267485762415 124.79048224398402 L 155 129 L 165.16267485762415 133.209517756016 L 177 129"/></g><g transform="translate(-46,-22) scale(1,1)"><path fill="none" stroke="#000000" d="M 165.16267485762415 124.79048224398402 L 155 129 L 165.16267485762415 133.209517756016 L 177 129 L 165.16267485762415 124.79048224398402" stroke-miterlimit="10"/></g></g></svg>