<svg version="1.1" xmlns="http://www.w3.org/2000/svg" xmlns:xlink="http://www.w3.org/1999/xlink" width="884.36083984375" height="478"><defs/><g><g transform="translate(-46,-14) scale(1,1)"><rect fill="#C0C0C0" stroke="none" x="219" y="124" width="139.41259765625" height="237" opacity="0.2"/></g><g transform="translate(-46,-14) scale(1,1)"><rect fill="#ffffff" stroke="none" x="212" y="117" width="139.41259765625" height="237"/></g><g transform="translate(-46,-14) scale(1,1)"><path fill="none" stroke="#000000" d="M 212 117 L 351.41259765625 117 L 351.41259765625 354 L 212 354 L 212 117 Z Z" stroke-miterlimit="10"/></g><g transform="translate(-46,-14) scale(1,1)"><path fill="none" stroke="#000000" d="M 212 142 L 351.41259765625 142" stroke-miterlimit="10"/></g><g transform="translate(-46,-14) scale(1,1)"><path fill="none" stroke="#000000" d="M 212 152 L 351.41259765625 152" stroke-miterlimit="10"/></g><g transform="translate(-46,-14) scale(1,1)"><g><path fill="none" stroke="none"/><text fill="#000000" stroke="none" font-family="Arial" font-size="13px" font-style="normal" font-weight="bold" text-decoration="none" x="236.549072265625" y="136.5">GameInteractor</text></g></g><g transform="translate(-46,-14) scale(1,1)"><g><path fill="none" stroke="none"/><text fill="#000000" stroke="none" font-family="Arial" font-size="13px" font-style="normal" font-weight="normal" text-decoration="none" x="217" y="169.5">+NewGame()</text></g></g><g transform="translate(-46,-14) scale(1,1)"><g><path fill="none" stroke="none"/><text fill="#000000" stroke="none" font-family="Arial" font-size="13px" font-style="normal" font-weight="normal" text-decoration="none" x="217" y="184.5">+UseSpell()</text></g></g><g transform="translate(-46,-14) scale(1,1)"><g><path fill="none" stroke="none"/><text fill="#000000" stroke="none" font-family="Arial" font-size="13px" font-style="normal" font-weight="normal" text-decoration="none" x="217" y="199.5">+EndTurn()</text></g></g><g transform="translate(-46,-14) scale(1,1)"><g><path fill="none" stroke="none"/><text fill="#000000" stroke="none" font-family="Arial" font-size="13px" font-style="normal" font-weight="normal" text-decoration="none" x="217" y="214.5">+GetRound()</text></g></g><g transform="translate(-46,-14) scale(1,1)"><g><path fill="none" stroke="none"/><text fill="#000000" stroke="none" font-family="Arial" font-size="13px" font-style="normal" font-weight="normal" text-decoration="none" x="217" y="229.5">+GetTurn()</text></g></g><g transform="translate(-46,-14) scale(1,1)"><g><path fill="none" stroke="none"/><text fill="#000000" stroke="none" font-family="Arial" font-size="13px" font-style="normal" font-weight="normal" text-decoration="none" x="217" y="244.5">+GetPlayerInGame()</text></g></g><g transform="translate(-46,-14) scale(1,1)"><g><path fill="none" stroke="none"/><text fill="#000000" stroke="none" font-family="Arial" font-size="13px" font-style="normal" font-weight="normal" text-decoration="none" x="217" y="259.5">+GetPlayersInGame()</text></g></g><g transform="translate(-46,-14) scale(1,1)"><g><path fill="none" stroke="none"/><text fill="#000000" stroke="none" font-family="Arial" font-size="13px" font-style="normal" font-weight="normal" text-decoration="none" x="217" y="274.5">+GetPlayerData()</text></g></g><g transform="translate(-46,-14) scale(1,1)"><g><path fill="none" stroke="none"/><text fill="#000000" stroke="none" font-family="Arial" font-size="13px" font-style="normal" font-weight="normal" text-decoration="none" x="217" y="289.5">+AddPlayerData()</text></g></g><g transform="translate(-46,-14) scale(1,1)"><g><path fill="none" stroke="none"/><text fill="#000000" stroke="none" font-family="Arial" font-size="13px" font-style="normal" font-weight="normal" text-decoration="none" x="217" y="304.5">+RemovePlayerData()</text></g></g><g transform="translate(-46,-14) scale(1,1)"><g><path fill="none" stroke="none"/><text fill="#000000" stroke="none" font-family="Arial" font-size="13px" font-style="normal" font-weight="normal" text-decoration="none" x="217" y="319.5">+GetPlayerSpell()</text></g></g><g transform="translate(-46,-14) scale(1,1)"><g><path fill="none" stroke="none"/><text fill="#000000" stroke="none" font-family="Arial" font-size="13px" font-style="normal" font-weight="normal" text-decoration="none" x="217" y="334.5">+AddPlayerSpell()</text></g></g><g transform="translate(-46,-14) scale(1,1)"><g><path fill="none" stroke="none"/><text fill="#000000" stroke="none" font-family="Arial" font-size="13px" font-style="normal" font-weight="normal" text-decoration="none" x="217" y="349.5">+RemovePlayerSpell()</text></g></g><g transform="translate(-46,-14) scale(1,1)"><rect fill="#C0C0C0" stroke="none" x="391" y="207" width="137.6162109375" height="57" opacity="0.2"/></g><g transform="translate(-46,-14) scale(1,1)"><rect fill="#ffffff" stroke="none" x="384" y="200" width="137.6162109375" height="57"/></g><g transform="translate(-46,-14) scale(1,1)"><path fill="none" stroke="#000000" d="M 384 200 L 521.6162109375 200 L 521.6162109375 257 L 384 257 L 384 200 Z Z" stroke-miterlimit="10"/></g><g transform="translate(-46,-14) scale(1,1)"><path fill="none" stroke="#000000" d="M 384 225 L 521.6162109375 225" stroke-miterlimit="10"/></g><g transform="translate(-46,-14) scale(1,1)"><path fill="none" stroke="#000000" d="M 384 235 L 521.6162109375 235" stroke-miterlimit="10"/></g><g transform="translate(-46,-14) scale(1,1)"><g><path fill="none" stroke="none"/><text fill="#000000" stroke="none" font-family="Arial" font-size="13px" font-style="normal" font-weight="bold" text-decoration="none" x="392.114990234375" y="219.5">PlayerDataConverter</text></g></g><g transform="translate(-46,-14) scale(1,1)"><g><path fill="none" stroke="none"/><text fill="#000000" stroke="none" font-family="Arial" font-size="13px" font-style="normal" font-weight="normal" text-decoration="none" x="389" y="252.5">+Convert()</text></g></g><g transform="translate(-46,-14) scale(1,1)"><path fill="none" stroke="#000000" d="M 351 208 L 384 208" stroke-miterlimit="10" stroke-dasharray="3"/></g><g transform="translate(-46,-14) scale(1,1)"><path fill="none" stroke="#000000" d="M 373.83732514237585 212.209517756016 L 384 208 L 373.83732514237585 203.790482243984" stroke-miterlimit="10"/></g><g transform="translate(-46,-14) scale(1,1)"><rect fill="#C0C0C0" stroke="none" x="419" y="55" width="76.9453125" height="75" opacity="0.2"/></g><g transform="translate(-46,-14) scale(1,1)"><rect fill="#ffffff" stroke="none" x="412" y="48" width="76.9453125" height="75"/></g><g transform="translate(-46,-14) scale(1,1)"><path fill="none" stroke="#000000" d="M 412 48 L 488.9453125 48 L 488.9453125 123 L 412 123 L 412 48 Z Z" stroke-miterlimit="10"/></g><g transform="translate(-46,-14) scale(1,1)"><path fill="none" stroke="#000000" d="M 412 86 L 488.9453125 86" stroke-miterlimit="10"/></g><g transform="translate(-46,-14) scale(1,1)"><g><path fill="none" stroke="none"/><text fill="#000000" stroke="none" font-family="Arial" font-size="13px" font-style="normal" font-weight="normal" text-decoration="none" x="416.5" y="65.5">«dataType»</text></g></g><g transform="translate(-46,-14) scale(1,1)"><g><path fill="none" stroke="none"/><text fill="#000000" stroke="none" font-family="Arial" font-size="13px" font-style="normal" font-weight="bold" text-decoration="none" x="418.318603515625" y="80.5">PlayerData</text></g></g><g transform="translate(-46,-14) scale(1,1)"><g><path fill="none" stroke="none"/><text fill="#000000" stroke="none" font-family="Arial" font-size="13px" font-style="normal" font-weight="normal" text-decoration="none" x="417" y="103.5">+Name</text></g></g><g transform="translate(-46,-14) scale(1,1)"><g><path fill="none" stroke="none"/><text fill="#000000" stroke="none" font-family="Arial" font-size="13px" font-style="normal" font-weight="normal" text-decoration="none" x="417" y="118.5">+Spells</text></g></g><g transform="translate(-46,-14) scale(1,1)"><rect fill="#C0C0C0" stroke="none" x="703" y="223" width="76.9453125" height="120" opacity="0.2"/></g><g transform="translate(-46,-14) scale(1,1)"><rect fill="#ffffff" stroke="none" x="696" y="216" width="76.9453125" height="120"/></g><g transform="translate(-46,-14) scale(1,1)"><path fill="none" stroke="#000000" d="M 696 216 L 772.9453125 216 L 772.9453125 336 L 696 336 L 696 216 Z Z" stroke-miterlimit="10"/></g><g transform="translate(-46,-14) scale(1,1)"><path fill="none" stroke="#000000" d="M 696 254 L 772.9453125 254" stroke-miterlimit="10"/></g><g transform="translate(-46,-14) scale(1,1)"><g><path fill="none" stroke="none"/><text fill="#000000" stroke="none" font-family="Arial" font-size="13px" font-style="normal" font-weight="normal" text-decoration="none" x="700.5" y="233.5">«dataType»</text></g></g><g transform="translate(-46,-14) scale(1,1)"><g><path fill="none" stroke="none"/><text fill="#000000" stroke="none" font-family="Arial" font-size="13px" font-style="normal" font-weight="bold" text-decoration="none" x="706.2890625" y="248.5">SpellData</text></g></g><g transform="translate(-46,-14) scale(1,1)"><g><path fill="none" stroke="none"/><text fill="#000000" stroke="none" font-family="Arial" font-size="13px" font-style="normal" font-weight="normal" text-decoration="none" x="701" y="271.5">+Name</text></g></g><g transform="translate(-46,-14) scale(1,1)"><g><path fill="none" stroke="none"/><text fill="#000000" stroke="none" font-family="Arial" font-size="13px" font-style="normal" font-weight="normal" text-decoration="none" x="701" y="286.5">+Manacost</text></g></g><g transform="translate(-46,-14) scale(1,1)"><g><path fill="none" stroke="none"/><text fill="#000000" stroke="none" font-family="Arial" font-size="13px" font-style="normal" font-weight="normal" text-decoration="none" x="701" y="301.5">+Cooldown</text></g></g><g transform="translate(-46,-14) scale(1,1)"><g><path fill="none" stroke="none"/><text fill="#000000" stroke="none" font-family="Arial" font-size="13px" font-style="normal" font-weight="normal" text-decoration="none" x="701" y="316.5">+Params</text></g></g><g transform="translate(-46,-14) scale(1,1)"><g><path fill="none" stroke="none"/><text fill="#000000" stroke="none" font-family="Arial" font-size="13px" font-style="normal" font-weight="normal" text-decoration="none" x="701" y="331.5">+Effects</text></g></g><g transform="translate(-46,-14) scale(1,1)"><path fill="none" stroke="#000000" d="M 728 216 L 728 64 L 489 64" stroke-miterlimit="10"/></g><g transform="translate(-46,-14) scale(1,1)"><path fill="#FFFFFF" stroke="none" d="M 499.16267485762415 59.790482243984016 L 489 64 L 499.16267485762415 68.20951775601598 L 511 64"/></g><g transform="translate(-46,-14) scale(1,1)"><path fill="none" stroke="#000000" d="M 499.16267485762415 59.790482243984016 L 489 64 L 499.16267485762415 68.20951775601598 L 511 64 L 499.16267485762415 59.790482243984016" stroke-miterlimit="10"/></g><g transform="translate(-46,-14) scale(1,1)"><path fill="none" stroke="#000000" d="M 304 117 L 304 85 L 412 85" stroke-miterlimit="10" stroke-dasharray="3"/></g><g transform="translate(-46,-14) scale(1,1)"><path fill="none" stroke="#000000" d="M 401.83732514237585 89.20951775601598 L 412 85 L 401.83732514237585 80.79048224398402" stroke-miterlimit="10"/></g><g transform="translate(-46,-14) scale(1,1)"><rect fill="#C0C0C0" stroke="none" x="823" y="223" width="104.36083984375" height="75" opacity="0.2"/></g><g transform="translate(-46,-14) scale(1,1)"><rect fill="#ffffff" stroke="none" x="816" y="216" width="104.36083984375" height="75"/></g><g transform="translate(-46,-14) scale(1,1)"><path fill="none" stroke="#000000" d="M 816 216 L 920.36083984375 216 L 920.36083984375 291 L 816 291 L 816 216 Z Z" stroke-miterlimit="10"/></g><g transform="translate(-46,-14) scale(1,1)"><path fill="none" stroke="#000000" d="M 816 254 L 920.36083984375 254" stroke-miterlimit="10"/></g><g transform="translate(-46,-14) scale(1,1)"><g><path fill="none" stroke="none"/><text fill="#000000" stroke="none" font-family="Arial" font-size="13px" font-style="normal" font-weight="normal" text-decoration="none" x="834.207763671875" y="233.5">«dataType»</text></g></g><g transform="translate(-46,-14) scale(1,1)"><g><path fill="none" stroke="none"/><text fill="#000000" stroke="none" font-family="Arial" font-size="13px" font-style="normal" font-weight="bold" text-decoration="none" x="823.49609375" y="248.5">SpellEffectData</text></g></g><g transform="translate(-46,-14) scale(1,1)"><g><path fill="none" stroke="none"/><text fill="#000000" stroke="none" font-family="Arial" font-size="13px" font-style="normal" font-weight="normal" text-decoration="none" x="821" y="271.5">+Type</text></g></g><g transform="translate(-46,-14) scale(1,1)"><g><path fill="none" stroke="none"/><text fill="#000000" stroke="none" font-family="Arial" font-size="13px" font-style="normal" font-weight="normal" text-decoration="none" x="821" y="286.5">+Params</text></g></g><g transform="translate(-46,-14) scale(1,1)"><path fill="none" stroke="#000000" d="M 816 240 L 773 240" stroke-miterlimit="10"/></g><g transform="translate(-46,-14) scale(1,1)"><path fill="#FFFFFF" stroke="none" d="M 783.1626748576241 235.790482243984 L 773 240 L 783.1626748576241 244.209517756016 L 795 240"/></g><g transform="translate(-46,-14) scale(1,1)"><path fill="none" stroke="#000000" d="M 783.1626748576241 235.790482243984 L 773 240 L 783.1626748576241 244.209517756016 L 795 240 L 783.1626748576241 235.790482243984" stroke-miterlimit="10"/></g><g transform="translate(-46,-14) scale(1,1)"><path fill="none" stroke="#000000" d="M 448 200 L 448 123" stroke-miterlimit="10" stroke-dasharray="3"/></g><g transform="translate(-46,-14) scale(1,1)"><path fill="none" stroke="#000000" d="M 452.209517756016 133.16267485762415 L 448 123 L 443.790482243984 133.16267485762415" stroke-miterlimit="10"/></g><g transform="translate(-46,-14) scale(1,1)"><rect fill="#C0C0C0" stroke="none" x="391" y="287" width="129.64990234375" height="57" opacity="0.2"/></g><g transform="translate(-46,-14) scale(1,1)"><rect fill="#ffffff" stroke="none" x="384" y="280" width="129.64990234375" height="57"/></g><g transform="translate(-46,-14) scale(1,1)"><path fill="none" stroke="#000000" d="M 384 280 L 513.64990234375 280 L 513.64990234375 337 L 384 337 L 384 280 Z Z" stroke-miterlimit="10"/></g><g transform="translate(-46,-14) scale(1,1)"><path fill="none" stroke="#000000" d="M 384 305 L 513.64990234375 305" stroke-miterlimit="10"/></g><g transform="translate(-46,-14) scale(1,1)"><path fill="none" stroke="#000000" d="M 384 315 L 513.64990234375 315" stroke-miterlimit="10"/></g><g transform="translate(-46,-14) scale(1,1)"><g><path fill="none" stroke="none"/><text fill="#000000" stroke="none" font-family="Arial" font-size="13px" font-style="normal" font-weight="bold" text-decoration="none" x="392.102294921875" y="299.5">SpellDataConverter</text></g></g><g transform="translate(-46,-14) scale(1,1)"><g><path fill="none" stroke="none"/><text fill="#000000" stroke="none" font-family="Arial" font-size="13px" font-style="normal" font-weight="normal" text-decoration="none" x="389" y="332.5">+Convert()</text></g></g><g transform="translate(-46,-14) scale(1,1)"><path fill="none" stroke="#000000" d="M 448 257 L 448 280" stroke-miterlimit="10" stroke-dasharray="3"/></g><g transform="translate(-46,-14) scale(1,1)"><path fill="none" stroke="#000000" d="M 443.790482243984 269.83732514237585 L 448 280 L 452.209517756016 269.83732514237585" stroke-miterlimit="10"/></g><g transform="translate(-46,-14) scale(1,1)"><rect fill="#C0C0C0" stroke="none" x="63" y="295" width="105.0908203125" height="72" opacity="0.2"/></g><g transform="translate(-46,-14) scale(1,1)"><rect fill="#ffffff" stroke="none" x="56" y="288" width="105.0908203125" height="72"/></g><g transform="translate(-46,-14) scale(1,1)"><path fill="none" stroke="#000000" d="M 56 288 L 161.0908203125 288 L 161.0908203125 360 L 56 360 L 56 288 Z Z" stroke-miterlimit="10"/></g><g transform="translate(-46,-14) scale(1,1)"><path fill="none" stroke="#000000" d="M 56 313 L 161.0908203125 313" stroke-miterlimit="10"/></g><g transform="translate(-46,-14) scale(1,1)"><path fill="none" stroke="#000000" d="M 56 323 L 161.0908203125 323" stroke-miterlimit="10"/></g><g transform="translate(-46,-14) scale(1,1)"><g><path fill="none" stroke="none"/><text fill="#000000" stroke="none" font-family="Arial" font-size="13px" font-style="normal" font-weight="bold" text-decoration="none" x="63.023193359375" y="307.5">GameEventBus</text></g></g><g transform="translate(-46,-14) scale(1,1)"><g><path fill="none" stroke="none"/><text fill="#000000" stroke="none" font-family="Arial" font-size="13px" font-style="normal" font-weight="normal" text-decoration="none" x="61" y="340.5">+On()</text></g></g><g transform="translate(-46,-14) scale(1,1)"><g><path fill="none" stroke="none"/><text fill="#000000" stroke="none" font-family="Arial" font-size="13px" font-style="normal" font-weight="normal" text-decoration="none" x="61" y="355.5">+Off()</text></g></g><g transform="translate(-46,-14) scale(1,1)"><rect fill="#C0C0C0" stroke="none" x="71" y="31" width="98.93359375" height="147" opacity="0.2"/></g><g transform="translate(-46,-14) scale(1,1)"><rect fill="#ffffff" stroke="none" x="64" y="24" width="98.93359375" height="147"/></g><g transform="translate(-46,-14) scale(1,1)"><path fill="none" stroke="#000000" d="M 64 24 L 162.93359375 24 L 162.93359375 171 L 64 171 L 64 24 Z Z" stroke-miterlimit="10"/></g><g transform="translate(-46,-14) scale(1,1)"><path fill="none" stroke="#000000" d="M 64 49 L 162.93359375 49" stroke-miterlimit="10"/></g><g transform="translate(-46,-14) scale(1,1)"><path fill="none" stroke="#000000" d="M 64 59 L 162.93359375 59" stroke-miterlimit="10"/></g><g transform="translate(-46,-14) scale(1,1)"><g><path fill="none" stroke="none"/><text fill="#000000" stroke="none" font-family="Arial" font-size="13px" font-style="normal" font-weight="bold" text-decoration="none" x="73.365478515625" y="43.5">GameContext</text></g></g><g transform="translate(-46,-14) scale(1,1)"><g><path fill="none" stroke="none"/><text fill="#000000" stroke="none" font-family="Arial" font-size="13px" font-style="normal" font-weight="normal" text-decoration="none" x="69" y="76.5">+GetTurn()</text></g></g><g transform="translate(-46,-14) scale(1,1)"><g><path fill="none" stroke="none"/><text fill="#000000" stroke="none" font-family="Arial" font-size="13px" font-style="normal" font-weight="normal" text-decoration="none" x="69" y="91.5">+GetRound()</text></g></g><g transform="translate(-46,-14) scale(1,1)"><g><path fill="none" stroke="none"/><text fill="#000000" stroke="none" font-family="Arial" font-size="13px" font-style="normal" font-weight="normal" text-decoration="none" x="69" y="106.5">+GetPlayer()</text></g></g><g transform="translate(-46,-14) scale(1,1)"><g><path fill="none" stroke="none"/><text fill="#000000" stroke="none" font-family="Arial" font-size="13px" font-style="normal" font-weight="normal" text-decoration="none" x="69" y="121.5">+GetPlayers()</text></g></g><g transform="translate(-46,-14) scale(1,1)"><g><path fill="none" stroke="none"/><text fill="#000000" stroke="none" font-family="Arial" font-size="13px" font-style="normal" font-weight="normal" text-decoration="none" x="69" y="136.5">+UseSpell()</text></g></g><g transform="translate(-46,-14) scale(1,1)"><g><path fill="none" stroke="none"/><text fill="#000000" stroke="none" font-family="Arial" font-size="13px" font-style="normal" font-weight="normal" text-decoration="none" x="69" y="151.5">+EndTurn()</text></g></g><g transform="translate(-46,-14) scale(1,1)"><g><path fill="none" stroke="none"/><text fill="#000000" stroke="none" font-family="Arial" font-size="13px" font-style="normal" font-weight="normal" text-decoration="none" x="69" y="166.5">+IsGameOver()</text></g></g><g transform="translate(-46,-14) scale(1,1)"><path fill="none" stroke="#000000" d="M 212 224 L 176 224 L 176 308 L 161 308" stroke-miterlimit="10" stroke-dasharray="3"/></g><g transform="translate(-46,-14) scale(1,1)"><path fill="none" stroke="#000000" d="M 171.16267485762415 303.790482243984 L 161 308 L 171.16267485762415 312.209517756016" stroke-miterlimit="10"/></g><g transform="translate(-46,-14) scale(1,1)"><path fill="none" stroke="#000000" d="M 163 144 L 212 144" stroke-miterlimit="10"/></g><g transform="translate(-46,-14) scale(1,1)"><path fill="#FFFFFF" stroke="none" d="M 201.83732514237585 148.209517756016 L 212 144 L 201.83732514237585 139.790482243984 L 190 144"/></g><g transform="translate(-46,-14) scale(1,1)"><path fill="none" stroke="#000000" d="M 201.83732514237585 148.209517756016 L 212 144 L 201.83732514237585 139.790482243984 L 190 144 L 201.83732514237585 148.209517756016" stroke-miterlimit="10"/></g><g transform="translate(-46,-14) scale(1,1)"><rect fill="#C0C0C0" stroke="none" x="71" y="191" width="92.8017578125" height="60" opacity="0.2"/></g><g transform="translate(-46,-14) scale(1,1)"><rect fill="#ffffff" stroke="none" x="64" y="184" width="92.8017578125" height="60"/></g><g transform="translate(-46,-14) scale(1,1)"><path fill="none" stroke="#000000" d="M 64 184 L 156.8017578125 184 L 156.8017578125 244 L 64 244 L 64 184 Z Z" stroke-miterlimit="10"/></g><g transform="translate(-46,-14) scale(1,1)"><path fill="none" stroke="#000000" d="M 64 222 L 156.8017578125 222" stroke-miterlimit="10"/></g><g transform="translate(-46,-14) scale(1,1)"><g><path fill="none" stroke="none"/><text fill="#000000" stroke="none" font-family="Arial" font-size="13px" font-style="normal" font-weight="normal" text-decoration="none" x="78.240478515625" y="201.5">«interface»</text></g></g><g transform="translate(-46,-14) scale(1,1)"><g><path fill="none" stroke="none"/><text fill="#000000" stroke="none" font-family="Arial" font-size="13px" font-style="normal" font-weight="bold" text-decoration="none" x="71.38818359375" y="216.5">IEventEmitter</text></g></g><g transform="translate(-46,-14) scale(1,1)"><g><path fill="none" stroke="none"/><text fill="#000000" stroke="none" font-family="Arial" font-size="13px" font-style="normal" font-weight="normal" text-decoration="none" x="69" y="239.5">+Emit()</text></g></g><g transform="translate(-46,-14) scale(1,1)"><path fill="none" stroke="#000000" d="M 109 288 L 109 244" stroke-miterlimit="10" stroke-dasharray="3"/></g><g transform="translate(-46,-14) scale(1,1)"><path fill="#FFFFFF" stroke="none" d="M 117.41903551203198 264.3253497152483 L 109 244 L 100.58096448796803 264.3253497152483"/></g><g transform="translate(-46,-14) scale(1,1)"><path fill="none" stroke="#000000" d="M 117.41903551203198 264.3253497152483 L 109 244 L 100.58096448796803 264.3253497152483 L 117.41903551203198 264.3253497152483" stroke-miterlimit="10"/></g><g transform="translate(-46,-14) scale(1,1)"><rect fill="#C0C0C0" stroke="none" x="575" y="119" width="50.919921875" height="44" opacity="0.2"/></g><g transform="translate(-46,-14) scale(1,1)"><rect fill="#ffffff" stroke="none" x="568" y="112" width="50.919921875" height="44"/></g><g transform="translate(-46,-14) scale(1,1)"><path fill="none" stroke="#000000" d="M 568 112 L 618.919921875 112 L 618.919921875 156 L 568 156 L 568 112 Z Z" stroke-miterlimit="10"/></g><g transform="translate(-46,-14) scale(1,1)"><path fill="none" stroke="#000000" d="M 568 137 L 618.919921875 137" stroke-miterlimit="10"/></g><g transform="translate(-46,-14) scale(1,1)"><path fill="none" stroke="#000000" d="M 568 147 L 618.919921875 147" stroke-miterlimit="10"/></g><g transform="translate(-46,-14) scale(1,1)"><g><path fill="none" stroke="none"/><text fill="#000000" stroke="none" font-family="Arial" font-size="13px" font-style="normal" font-weight="bold" text-decoration="none" x="575.035888671875" y="131.5">Player</text></g></g><g transform="translate(-46,-14) scale(1,1)"><path fill="none" stroke="#000000" d="M 504 200 L 504 144 L 568 144" stroke-miterlimit="10" stroke-dasharray="3"/></g><g transform="translate(-46,-14) scale(1,1)"><path fill="none" stroke="#000000" d="M 557.8373251423759 148.209517756016 L 568 144 L 557.8373251423758 139.790482243984" stroke-miterlimit="10"/></g><g transform="translate(-46,-14) scale(1,1)"><rect fill="#C0C0C0" stroke="none" x="559" y="215" width="89.57080078125" height="44" opacity="0.2"/></g><g transform="translate(-46,-14) scale(1,1)"><rect fill="#ffffff" stroke="none" x="552" y="208" width="89.57080078125" height="44"/></g><g transform="translate(-46,-14) scale(1,1)"><path fill="none" stroke="#000000" d="M 552 208 L 641.57080078125 208 L 641.57080078125 252 L 552 252 L 552 208 Z Z" stroke-miterlimit="10"/></g><g transform="translate(-46,-14) scale(1,1)"><path fill="none" stroke="#000000" d="M 552 233 L 641.57080078125 233" stroke-miterlimit="10"/></g><g transform="translate(-46,-14) scale(1,1)"><path fill="none" stroke="#000000" d="M 552 243 L 641.57080078125 243" stroke-miterlimit="10"/></g><g transform="translate(-46,-14) scale(1,1)"><g><path fill="none" stroke="none"/><text fill="#000000" stroke="none" font-family="Arial" font-size="13px" font-style="normal" font-weight="bold" text-decoration="none" x="582.331787109375" y="227.5">Spell</text></g></g><g transform="translate(-46,-14) scale(1,1)"><path fill="none" stroke="#000000" d="M 514 312 L 596 312 L 596 252" stroke-miterlimit="10" stroke-dasharray="3"/></g><g transform="translate(-46,-14) scale(1,1)"><path fill="none" stroke="#000000" d="M 600.209517756016 262.16267485762415 L 596 252 L 591.790482243984 262.16267485762415" stroke-miterlimit="10"/></g><g transform="translate(-46,-14) scale(1,1)"><path fill="none" stroke="#000000" d="M 514 328 L 696 328" stroke-miterlimit="10" stroke-dasharray="3"/></g><g transform="translate(-46,-14) scale(1,1)"><path fill="none" stroke="#000000" d="M 685.8373251423759 332.209517756016 L 696 328 L 685.8373251423758 323.790482243984" stroke-miterlimit="10"/></g><g transform="translate(-46,-14) scale(1,1)"><rect fill="#C0C0C0" stroke="none" x="231" y="47" width="100.5205078125" height="37" opacity="0.2"/></g><g transform="translate(-46,-14) scale(1,1)"><rect fill="#ffffff" stroke="none" x="224" y="40" width="100.5205078125" height="37"/></g><g transform="translate(-46,-14) scale(1,1)"><path fill="none" stroke="#000000" d="M 224 40 L 324.5205078125 40 L 324.5205078125 77 L 224 77 L 224 40 Z Z" stroke-miterlimit="10"/></g><g transform="translate(-46,-14) scale(1,1)"><g><path fill="none" stroke="none"/><text fill="#000000" stroke="none" font-family="Arial" font-size="13px" font-style="normal" font-weight="normal" text-decoration="none" x="228.7412109375" y="57.5">«primitiveType»</text></g></g><g transform="translate(-46,-14) scale(1,1)"><g><path fill="none" stroke="none"/><text fill="#000000" stroke="none" font-family="Arial" font-size="13px" font-style="normal" font-weight="bold" text-decoration="none" x="237.412109375" y="72.5">SpellParams</text></g></g><g transform="translate(-46,-14) scale(1,1)"><path fill="none" stroke="#000000" d="M 273 117 L 273 77" stroke-miterlimit="10" stroke-dasharray="3"/></g><g transform="translate(-46,-14) scale(1,1)"><path fill="none" stroke="#000000" d="M 277.209517756016 87.16267485762415 L 273 77 L 268.790482243984 87.16267485762415" stroke-miterlimit="10"/></g><g transform="translate(-46,-14) scale(1,1)"><rect fill="#C0C0C0" stroke="none" x="495" y="359" width="105.09716796875" height="47" opacity="0.2"/></g><g transform="translate(-46,-14) scale(1,1)"><rect fill="#ffffff" stroke="none" x="488" y="352" width="105.09716796875" height="47"/></g><g transform="translate(-46,-14) scale(1,1)"><path fill="none" stroke="#000000" d="M 488 352 L 593.09716796875 352 L 593.09716796875 399 L 488 399 L 488 352 Z Z" stroke-miterlimit="10"/></g><g transform="translate(-46,-14) scale(1,1)"><path fill="none" stroke="#000000" d="M 488 390 L 593.09716796875 390" stroke-miterlimit="10"/></g><g transform="translate(-46,-14) scale(1,1)"><g><path fill="none" stroke="none"/><text fill="#000000" stroke="none" font-family="Arial" font-size="13px" font-style="normal" font-weight="normal" text-decoration="none" x="508.38818359375" y="369.5">«interface»</text></g></g><g transform="translate(-46,-14) scale(1,1)"><g><path fill="none" stroke="none"/><text fill="#000000" stroke="none" font-family="Arial" font-size="13px" font-style="normal" font-weight="bold" text-decoration="none" x="509.476806640625" y="384.5">IPlayerInfo</text></g></g><g transform="translate(-46,-14) scale(1,1)"><path fill="none" stroke="#000000" d="M 344 354 L 344 368 L 488 368" stroke-miterlimit="10" stroke-dasharray="3"/></g><g transform="translate(-46,-14) scale(1,1)"><path fill="none" stroke="#000000" d="M 477.83732514237585 372.209517756016 L 488 368 L 477.83732514237585 363.790482243984" stroke-miterlimit="10"/></g><g transform="translate(-46,-14) scale(1,1)"><rect fill="#C0C0C0" stroke="none" x="287" y="399" width="111.578125" height="90" opacity="0.2"/></g><g transform="translate(-46,-14) scale(1,1)"><rect fill="#ffffff" stroke="none" x="280" y="392" width="111.578125" height="90"/></g><g transform="translate(-46,-14) scale(1,1)"><path fill="none" stroke="#000000" d="M 280 392 L 391.578125 392 L 391.578125 482 L 280 482 L 280 392 Z Z" stroke-miterlimit="10"/></g><g transform="translate(-46,-14) scale(1,1)"><path fill="none" stroke="#000000" d="M 280 430 L 391.578125 430" stroke-miterlimit="10"/></g><g transform="translate(-46,-14) scale(1,1)"><g><path fill="none" stroke="none"/><text fill="#000000" stroke="none" font-family="Arial" font-size="13px" font-style="normal" font-weight="normal" text-decoration="none" x="303.628662109375" y="409.5">«interface»</text></g></g><g transform="translate(-46,-14) scale(1,1)"><g><path fill="none" stroke="none"/><text fill="#000000" stroke="none" font-family="Arial" font-size="13px" font-style="normal" font-weight="bold" text-decoration="none" x="288.4609375" y="424.5">ISpellRepository</text></g></g><g transform="translate(-46,-14) scale(1,1)"><g><path fill="none" stroke="none"/><text fill="#000000" stroke="none" font-family="Arial" font-size="13px" font-style="normal" font-weight="normal" text-decoration="none" x="285" y="447.5">+AddSpell()</text></g></g><g transform="translate(-46,-14) scale(1,1)"><g><path fill="none" stroke="none"/><text fill="#000000" stroke="none" font-family="Arial" font-size="13px" font-style="normal" font-weight="normal" text-decoration="none" x="285" y="462.5">+GetSpell()</text></g></g><g transform="translate(-46,-14) scale(1,1)"><g><path fill="none" stroke="none"/><text fill="#000000" stroke="none" font-family="Arial" font-size="13px" font-style="normal" font-weight="normal" text-decoration="none" x="285" y="477.5">+RemoveSpell()</text></g></g><g transform="translate(-46,-14) scale(1,1)"><rect fill="#C0C0C0" stroke="none" x="115" y="399" width="119.54443359375" height="90" opacity="0.2"/></g><g transform="translate(-46,-14) scale(1,1)"><rect fill="#ffffff" stroke="none" x="108" y="392" width="119.54443359375" height="90"/></g><g transform="translate(-46,-14) scale(1,1)"><path fill="none" stroke="#000000" d="M 108 392 L 227.54443359375 392 L 227.54443359375 482 L 108 482 L 108 392 Z Z" stroke-miterlimit="10"/></g><g transform="translate(-46,-14) scale(1,1)"><path fill="none" stroke="#000000" d="M 108 430 L 227.54443359375 430" stroke-miterlimit="10"/></g><g transform="translate(-46,-14) scale(1,1)"><g><path fill="none" stroke="none"/><text fill="#000000" stroke="none" font-family="Arial" font-size="13px" font-style="normal" font-weight="normal" text-decoration="none" x="135.61181640625" y="409.5">«interface»</text></g></g><g transform="translate(-46,-14) scale(1,1)"><g><path fill="none" stroke="none"/><text fill="#000000" stroke="none" font-family="Arial" font-size="13px" font-style="normal" font-weight="bold" text-decoration="none" x="116.4736328125" y="424.5">IPlayerRepository</text></g></g><g transform="translate(-46,-14) scale(1,1)"><g><path fill="none" stroke="none"/><text fill="#000000" stroke="none" font-family="Arial" font-size="13px" font-style="normal" font-weight="normal" text-decoration="none" x="113" y="447.5">+AddPlayer()</text></g></g><g transform="translate(-46,-14) scale(1,1)"><g><path fill="none" stroke="none"/><text fill="#000000" stroke="none" font-family="Arial" font-size="13px" font-style="normal" font-weight="normal" text-decoration="none" x="113" y="462.5">+GetPlayer()</text></g></g><g transform="translate(-46,-14) scale(1,1)"><g><path fill="none" stroke="none"/><text fill="#000000" stroke="none" font-family="Arial" font-size="13px" font-style="normal" font-weight="normal" text-decoration="none" x="113" y="477.5">+RemovePlayer()</text></g></g><g transform="translate(-46,-14) scale(1,1)"><path fill="none" stroke="#000000" d="M 216 392 L 216 354" stroke-miterlimit="10"/></g><g transform="translate(-46,-14) scale(1,1)"><path fill="#FFFFFF" stroke="none" d="M 220.209517756016 364.16267485762415 L 216 354 L 211.790482243984 364.16267485762415 L 216 376"/></g><g transform="translate(-46,-14) scale(1,1)"><path fill="none" stroke="#000000" d="M 220.209517756016 364.16267485762415 L 216 354 L 211.790482243984 364.16267485762415 L 216 376 L 220.209517756016 364.16267485762415" stroke-miterlimit="10"/></g><g transform="translate(-46,-14) scale(1,1)"><path fill="none" stroke="#000000" d="M 280 400 L 276 400 L 276 354" stroke-miterlimit="10"/></g><g transform="translate(-46,-14) scale(1,1)"><path fill="#FFFFFF" stroke="none" d="M 280.209517756016 364.16267485762415 L 276 354 L 271.790482243984 364.16267485762415 L 276 376"/></g><g transform="translate(-46,-14) scale(1,1)"><path fill="none" stroke="#000000" d="M 280.209517756016 364.16267485762415 L 276 354 L 271.790482243984 364.16267485762415 L 276 376 L 280.209517756016 364.16267485762415" stroke-miterlimit="10"/></g></g></svg>