<svg version="1.1" xmlns="http://www.w3.org/2000/svg" xmlns:xlink="http://www.w3.org/1999/xlink" width="404.36083984375" height="140"><defs/><g><g transform="translate(-70,-6) scale(1,1)"><rect fill="#C0C0C0" stroke="none" x="87" y="23" width="76.9453125" height="75" opacity="0.2"/></g><g transform="translate(-70,-6) scale(1,1)"><rect fill="#ffffff" stroke="none" x="80" y="16" width="76.9453125" height="75"/></g><g transform="translate(-70,-6) scale(1,1)"><path fill="none" stroke="#000000" d="M 80 16 L 156.9453125 16 L 156.9453125 91 L 80 91 L 80 16 Z Z" stroke-miterlimit="10"/></g><g transform="translate(-70,-6) scale(1,1)"><path fill="none" stroke="#000000" d="M 80 54 L 156.9453125 54" stroke-miterlimit="10"/></g><g transform="translate(-70,-6) scale(1,1)"><g><path fill="none" stroke="none"/><text fill="#000000" stroke="none" font-family="Arial" font-size="13px" font-style="normal" font-weight="normal" text-decoration="none" x="84.5" y="33.5">«dataType»</text></g></g><g transform="translate(-70,-6) scale(1,1)"><g><path fill="none" stroke="none"/><text fill="#000000" stroke="none" font-family="Arial" font-size="13px" font-style="normal" font-weight="bold" text-decoration="none" x="86.318603515625" y="48.5">PlayerData</text></g></g><g transform="translate(-70,-6) scale(1,1)"><g><path fill="none" stroke="none"/><text fill="#000000" stroke="none" font-family="Arial" font-size="13px" font-style="normal" font-weight="normal" text-decoration="none" x="85" y="71.5">+Name</text></g></g><g transform="translate(-70,-6) scale(1,1)"><g><path fill="none" stroke="none"/><text fill="#000000" stroke="none" font-family="Arial" font-size="13px" font-style="normal" font-weight="normal" text-decoration="none" x="85" y="86.5">+Spells</text></g></g><g transform="translate(-70,-6) scale(1,1)"><rect fill="#C0C0C0" stroke="none" x="223" y="23" width="76.9453125" height="120" opacity="0.2"/></g><g transform="translate(-70,-6) scale(1,1)"><rect fill="#ffffff" stroke="none" x="216" y="16" width="76.9453125" height="120"/></g><g transform="translate(-70,-6) scale(1,1)"><path fill="none" stroke="#000000" d="M 216 16 L 292.9453125 16 L 292.9453125 136 L 216 136 L 216 16 Z Z" stroke-miterlimit="10"/></g><g transform="translate(-70,-6) scale(1,1)"><path fill="none" stroke="#000000" d="M 216 54 L 292.9453125 54" stroke-miterlimit="10"/></g><g transform="translate(-70,-6) scale(1,1)"><g><path fill="none" stroke="none"/><text fill="#000000" stroke="none" font-family="Arial" font-size="13px" font-style="normal" font-weight="normal" text-decoration="none" x="220.5" y="33.5">«dataType»</text></g></g><g transform="translate(-70,-6) scale(1,1)"><g><path fill="none" stroke="none"/><text fill="#000000" stroke="none" font-family="Arial" font-size="13px" font-style="normal" font-weight="bold" text-decoration="none" x="226.2890625" y="48.5">SpellData</text></g></g><g transform="translate(-70,-6) scale(1,1)"><g><path fill="none" stroke="none"/><text fill="#000000" stroke="none" font-family="Arial" font-size="13px" font-style="normal" font-weight="normal" text-decoration="none" x="221" y="71.5">+Name</text></g></g><g transform="translate(-70,-6) scale(1,1)"><g><path fill="none" stroke="none"/><text fill="#000000" stroke="none" font-family="Arial" font-size="13px" font-style="normal" font-weight="normal" text-decoration="none" x="221" y="86.5">+Manacost</text></g></g><g transform="translate(-70,-6) scale(1,1)"><g><path fill="none" stroke="none"/><text fill="#000000" stroke="none" font-family="Arial" font-size="13px" font-style="normal" font-weight="normal" text-decoration="none" x="221" y="101.5">+Cooldown</text></g></g><g transform="translate(-70,-6) scale(1,1)"><g><path fill="none" stroke="none"/><text fill="#000000" stroke="none" font-family="Arial" font-size="13px" font-style="normal" font-weight="normal" text-decoration="none" x="221" y="116.5">+Params</text></g></g><g transform="translate(-70,-6) scale(1,1)"><g><path fill="none" stroke="none"/><text fill="#000000" stroke="none" font-family="Arial" font-size="13px" font-style="normal" font-weight="normal" text-decoration="none" x="221" y="131.5">+Effects</text></g></g><g transform="translate(-70,-6) scale(1,1)"><path fill="none" stroke="#000000" d="M 216 32 L 157 32" stroke-miterlimit="10"/></g><g transform="translate(-70,-6) scale(1,1)"><path fill="#FFFFFF" stroke="none" d="M 167.16267485762415 27.790482243984012 L 157 32 L 167.16267485762415 36.209517756015984 L 179 32"/></g><g transform="translate(-70,-6) scale(1,1)"><path fill="none" stroke="#000000" d="M 167.16267485762415 27.790482243984012 L 157 32 L 167.16267485762415 36.209517756015984 L 179 32 L 167.16267485762415 27.790482243984012" stroke-miterlimit="10"/></g><g transform="translate(-70,-6) scale(1,1)"><rect fill="#C0C0C0" stroke="none" x="367" y="23" width="104.36083984375" height="75" opacity="0.2"/></g><g transform="translate(-70,-6) scale(1,1)"><rect fill="#ffffff" stroke="none" x="360" y="16" width="104.36083984375" height="75"/></g><g transform="translate(-70,-6) scale(1,1)"><path fill="none" stroke="#000000" d="M 360 16 L 464.36083984375 16 L 464.36083984375 91 L 360 91 L 360 16 Z Z" stroke-miterlimit="10"/></g><g transform="translate(-70,-6) scale(1,1)"><path fill="none" stroke="#000000" d="M 360 54 L 464.36083984375 54" stroke-miterlimit="10"/></g><g transform="translate(-70,-6) scale(1,1)"><g><path fill="none" stroke="none"/><text fill="#000000" stroke="none" font-family="Arial" font-size="13px" font-style="normal" font-weight="normal" text-decoration="none" x="378.207763671875" y="33.5">«dataType»</text></g></g><g transform="translate(-70,-6) scale(1,1)"><g><path fill="none" stroke="none"/><text fill="#000000" stroke="none" font-family="Arial" font-size="13px" font-style="normal" font-weight="bold" text-decoration="none" x="367.49609375" y="48.5">SpellEffectData</text></g></g><g transform="translate(-70,-6) scale(1,1)"><g><path fill="none" stroke="none"/><text fill="#000000" stroke="none" font-family="Arial" font-size="13px" font-style="normal" font-weight="normal" text-decoration="none" x="365" y="71.5">+Type</text></g></g><g transform="translate(-70,-6) scale(1,1)"><g><path fill="none" stroke="none"/><text fill="#000000" stroke="none" font-family="Arial" font-size="13px" font-style="normal" font-weight="normal" text-decoration="none" x="365" y="86.5">+Params</text></g></g><g transform="translate(-70,-6) scale(1,1)"><path fill="none" stroke="#000000" d="M 360 32 L 293 32" stroke-miterlimit="10"/></g><g transform="translate(-70,-6) scale(1,1)"><path fill="#FFFFFF" stroke="none" d="M 303.16267485762415 27.790482243984012 L 293 32 L 303.16267485762415 36.209517756015984 L 315 32"/></g><g transform="translate(-70,-6) scale(1,1)"><path fill="none" stroke="#000000" d="M 303.16267485762415 27.790482243984012 L 293 32 L 303.16267485762415 36.209517756015984 L 315 32 L 303.16267485762415 27.790482243984012" stroke-miterlimit="10"/></g></g></svg>