<svg version="1.1" xmlns="http://www.w3.org/2000/svg" xmlns:xlink="http://www.w3.org/1999/xlink" width="892" height="560"><defs/><g><g transform="translate(-142,-70) scale(1,1)"><path fill="#ffffff" stroke="none" d="M 168.40935031960228 217.68 C 168.40935031960228 212.886167936 172.29519264454774 209 177.088623046875 209 C 181.88205344920226 209 185.76789577414772 212.886167936 185.76789577414772 217.68 C 185.76789577414772 222.47383206400002 181.88205344920226 226.36 177.088623046875 226.36 C 172.29519264454774 226.36 168.40935031960228 222.47383206400002 168.40935031960228 217.68 Z"/></g><g transform="translate(-142,-70) scale(1,1)"><path fill="none" stroke="#000000" d="M 168.40935031960228 217.68 C 168.40935031960228 212.886167936 172.29519264454774 209 177.088623046875 209 C 181.88205344920226 209 185.76789577414772 212.886167936 185.76789577414772 217.68 C 185.76789577414772 222.47383206400002 181.88205344920226 226.36 177.088623046875 226.36 C 172.29519264454774 226.36 168.40935031960228 222.47383206400002 168.40935031960228 217.68 Z" stroke-miterlimit="10"/></g><g transform="translate(-142,-70) scale(1,1)"><path fill="none" stroke="#000000" d="M 177.088623046875 226.36 L 177.088623046875 243.64" stroke-miterlimit="10"/></g><g transform="translate(-142,-70) scale(1,1)"><path fill="none" stroke="#000000" d="M 167.89880486505683 232.84 L 186.27844122869317 232.84" stroke-miterlimit="10"/></g><g transform="translate(-142,-70) scale(1,1)"><path fill="none" stroke="#000000" d="M 177.088623046875 243.64 L 164.32498668323865 261" stroke-miterlimit="10"/></g><g transform="translate(-142,-70) scale(1,1)"><path fill="none" stroke="#000000" d="M 177.088623046875 243.64 L 189.85225941051135 261" stroke-miterlimit="10"/></g><g transform="translate(-142,-70) scale(1,1)"><g><path fill="none" stroke="none"/><text fill="#000000" stroke="none" font-family="Arial" font-size="13px" font-style="normal" font-weight="bold" text-decoration="none" x="159.97216796875" y="281.5">Игрок</text></g></g><g transform="translate(-142,-70) scale(1,1)"><path fill="#C0C0C0" stroke="none" d="M 311 161 C 311 146.6405952 345.2502128 135 387.5 135 C 429.7497872 135 464 146.6405952 464 161 C 464 175.3594048 429.7497872 187 387.5 187 C 345.2502128 187 311 175.3594048 311 161 Z" opacity="0.2"/></g><g transform="translate(-142,-70) scale(1,1)"><path fill="#ffffff" stroke="none" d="M 304 154 C 304 139.6405952 338.2502128 128 380.5 128 C 422.7497872 128 457 139.6405952 457 154 C 457 168.3594048 422.7497872 180 380.5 180 C 338.2502128 180 304 168.3594048 304 154 Z"/></g><g transform="translate(-142,-70) scale(1,1)"><path fill="none" stroke="#000000" d="M 304 154 C 304 139.6405952 338.2502128 128 380.5 128 C 422.7497872 128 457 139.6405952 457 154 C 457 168.3594048 422.7497872 180 380.5 180 C 338.2502128 180 304 168.3594048 304 154 Z" stroke-miterlimit="10"/></g><g transform="translate(-142,-70) scale(1,1)"><g><path fill="none" stroke="none"/><text fill="#000000" stroke="none" font-family="Arial" font-size="13px" font-style="normal" font-weight="bold" text-decoration="none" x="350.053466796875" y="154.5">Сыграть в</text><text fill="#000000" stroke="none" font-family="Arial" font-size="13px" font-style="normal" font-weight="bold" text-decoration="none" x="367.706298828125" y="167.5">игру</text></g></g><g transform="translate(-142,-70) scale(1,1)"><path fill="#C0C0C0" stroke="none" d="M 575 505 C 575 490.6405952 610.817216 479 655 479 C 699.182784 479 735 490.6405952 735 505 C 735 519.3594048 699.182784 531 655 531 C 610.817216 531 575 519.3594048 575 505 Z" opacity="0.2"/></g><g transform="translate(-142,-70) scale(1,1)"><path fill="#ffffff" stroke="none" d="M 568 498 C 568 483.6405952 603.817216 472 648 472 C 692.182784 472 728 483.6405952 728 498 C 728 512.3594048 692.182784 524 648 524 C 603.817216 524 568 512.3594048 568 498 Z"/></g><g transform="translate(-142,-70) scale(1,1)"><path fill="none" stroke="#000000" d="M 568 498 C 568 483.6405952 603.817216 472 648 472 C 692.182784 472 728 483.6405952 728 498 C 728 512.3594048 692.182784 524 648 524 C 603.817216 524 568 512.3594048 568 498 Z" stroke-miterlimit="10"/></g><g transform="translate(-142,-70) scale(1,1)"><g><path fill="none" stroke="none"/><text fill="#000000" stroke="none" font-family="Arial" font-size="13px" font-style="normal" font-weight="bold" text-decoration="none" x="623.298095703125" y="498.5">Создать</text><text fill="#000000" stroke="none" font-family="Arial" font-size="13px" font-style="normal" font-weight="bold" text-decoration="none" x="613.0244140625" y="511.5">заклинание</text></g></g><g transform="translate(-142,-70) scale(1,1)"><path fill="#C0C0C0" stroke="none" d="M 303 282.5 C 303 262.8938896 342.6227952 247 391.5 247 C 440.3772048 247 480 262.8938896 480 282.5 C 480 302.1061104 440.3772048 318 391.5 318 C 342.6227952 318 303 302.1061104 303 282.5 Z" opacity="0.2"/></g><g transform="translate(-142,-70) scale(1,1)"><path fill="#ffffff" stroke="none" d="M 296 275.5 C 296 255.8938896 335.6227952 240 384.5 240 C 433.3772048 240 473 255.8938896 473 275.5 C 473 295.1061104 433.3772048 311 384.5 311 C 335.6227952 311 296 295.1061104 296 275.5 Z"/></g><g transform="translate(-142,-70) scale(1,1)"><path fill="none" stroke="#000000" d="M 296 275.5 C 296 255.8938896 335.6227952 240 384.5 240 C 433.3772048 240 473 255.8938896 473 275.5 C 473 295.1061104 433.3772048 311 384.5 311 C 335.6227952 311 296 295.1061104 296 275.5 Z" stroke-miterlimit="10"/></g><g transform="translate(-142,-70) scale(1,1)"><g><path fill="none" stroke="none"/><text fill="#000000" stroke="none" font-family="Arial" font-size="13px" font-style="normal" font-weight="bold" text-decoration="none" x="359.798095703125" y="269.5">Создать</text><text fill="#000000" stroke="none" font-family="Arial" font-size="13px" font-style="normal" font-weight="bold" text-decoration="none" x="357.59228515625" y="282.5">профиль</text><text fill="#000000" stroke="none" font-family="Arial" font-size="13px" font-style="normal" font-weight="bold" text-decoration="none" x="351.64453125" y="295.5">персонажа</text></g></g><g transform="translate(-142,-70) scale(1,1)"><path fill="#C0C0C0" stroke="none" d="M 535 122.5 C 535 102.8938896 572.6080768 87 619 87 C 665.3919232 87 703 102.8938896 703 122.5 C 703 142.1061104 665.3919232 158 619 158 C 572.6080768 158 535 142.1061104 535 122.5 Z" opacity="0.2"/></g><g transform="translate(-142,-70) scale(1,1)"><path fill="#ffffff" stroke="none" d="M 528 115.5 C 528 95.8938896 565.6080768 80 612 80 C 658.3919232 80 696 95.8938896 696 115.5 C 696 135.1061104 658.3919232 151 612 151 C 565.6080768 151 528 135.1061104 528 115.5 Z"/></g><g transform="translate(-142,-70) scale(1,1)"><path fill="none" stroke="#000000" d="M 528 115.5 C 528 95.8938896 565.6080768 80 612 80 C 658.3919232 80 696 95.8938896 696 115.5 C 696 135.1061104 658.3919232 151 612 151 C 565.6080768 151 528 135.1061104 528 115.5 Z" stroke-miterlimit="10"/></g><g transform="translate(-142,-70) scale(1,1)"><g><path fill="none" stroke="none"/><text fill="#000000" stroke="none" font-family="Arial" font-size="13px" font-style="normal" font-weight="bold" text-decoration="none" x="585.819091796875" y="109.5">Выбрать</text><text fill="#000000" stroke="none" font-family="Arial" font-size="13px" font-style="normal" font-weight="bold" text-decoration="none" x="585.09228515625" y="122.5">профиль</text><text fill="#000000" stroke="none" font-family="Arial" font-size="13px" font-style="normal" font-weight="bold" text-decoration="none" x="579.14453125" y="135.5">персонажа</text></g></g><g transform="translate(-142,-70) scale(1,1)"><path fill="none" stroke="#000000" d="M 458 141 L 527 129" stroke-miterlimit="10" stroke-dasharray="3"/></g><g transform="translate(-142,-70) scale(1,1)"><path fill="none" stroke="#000000" d="M 517.7088769873103 134.8885510240694 L 527 129 L 516.2663495524063 126.5940182733712" stroke-miterlimit="10"/></g><g transform="translate(-142,-70) scale(1,1)"><g><path fill="none" stroke="none"/><text fill="#000000" stroke="none" font-family="Arial" font-size="13px" font-style="normal" font-weight="normal" text-decoration="none" x="462.5" y="131.5">«include»</text></g></g><g transform="translate(-142,-70) scale(1,1)"><path fill="none" stroke="#000000" d="M 203 235 L 321 181" stroke-miterlimit="10"/></g><g transform="translate(-142,-70) scale(1,1)"><path fill="none" stroke="#000000" d="M 203 251 L 295 263" stroke-miterlimit="10"/></g><g transform="translate(-142,-70) scale(1,1)"><path fill="#C0C0C0" stroke="none" d="M 311 382.5 C 311 362.8938896 352.1897984 347 403 347 C 453.8102016 347 495 362.8938896 495 382.5 C 495 402.1061104 453.8102016 418 403 418 C 352.1897984 418 311 402.1061104 311 382.5 Z" opacity="0.2"/></g><g transform="translate(-142,-70) scale(1,1)"><path fill="#ffffff" stroke="none" d="M 304 375.5 C 304 355.8938896 345.1897984 340 396 340 C 446.8102016 340 488 355.8938896 488 375.5 C 488 395.1061104 446.8102016 411 396 411 C 345.1897984 411 304 395.1061104 304 375.5 Z"/></g><g transform="translate(-142,-70) scale(1,1)"><path fill="none" stroke="#000000" d="M 304 375.5 C 304 355.8938896 345.1897984 340 396 340 C 446.8102016 340 488 355.8938896 488 375.5 C 488 395.1061104 446.8102016 411 396 411 C 345.1897984 411 304 395.1061104 304 375.5 Z" stroke-miterlimit="10"/></g><g transform="translate(-142,-70) scale(1,1)"><g><path fill="none" stroke="none"/><text fill="#000000" stroke="none" font-family="Arial" font-size="13px" font-style="normal" font-weight="bold" text-decoration="none" x="360.16748046875" y="369.5">Посмотреть</text><text fill="#000000" stroke="none" font-family="Arial" font-size="13px" font-style="normal" font-weight="bold" text-decoration="none" x="369.09228515625" y="382.5">профиль</text><text fill="#000000" stroke="none" font-family="Arial" font-size="13px" font-style="normal" font-weight="bold" text-decoration="none" x="363.14453125" y="395.5">персонажа</text></g></g><g transform="translate(-142,-70) scale(1,1)"><path fill="none" stroke="#000000" d="M 203 262 L 334 339" stroke-miterlimit="10"/></g><g transform="translate(-142,-70) scale(1,1)"><path fill="#C0C0C0" stroke="none" d="M 567 369 C 567 354.6405952 602.817216 343 647 343 C 691.182784 343 727 354.6405952 727 369 C 727 383.3594048 691.182784 395 647 395 C 602.817216 395 567 383.3594048 567 369 Z" opacity="0.2"/></g><g transform="translate(-142,-70) scale(1,1)"><path fill="#ffffff" stroke="none" d="M 560 362 C 560 347.6405952 595.817216 336 640 336 C 684.182784 336 720 347.6405952 720 362 C 720 376.3594048 684.182784 388 640 388 C 595.817216 388 560 376.3594048 560 362 Z"/></g><g transform="translate(-142,-70) scale(1,1)"><path fill="none" stroke="#000000" d="M 560 362 C 560 347.6405952 595.817216 336 640 336 C 684.182784 336 720 347.6405952 720 362 C 720 376.3594048 684.182784 388 640 388 C 595.817216 388 560 376.3594048 560 362 Z" stroke-miterlimit="10"/></g><g transform="translate(-142,-70) scale(1,1)"><g><path fill="none" stroke="none"/><text fill="#000000" stroke="none" font-family="Arial" font-size="13px" font-style="normal" font-weight="bold" text-decoration="none" x="604.16748046875" y="362.5">Посмотреть</text><text fill="#000000" stroke="none" font-family="Arial" font-size="13px" font-style="normal" font-weight="bold" text-decoration="none" x="605.11962890625" y="375.5">заклинания</text></g></g><g transform="translate(-142,-70) scale(1,1)"><path fill="none" stroke="#000000" d="M 489 370 L 559 366" stroke-miterlimit="10" stroke-dasharray="3"/></g><g transform="translate(-142,-70) scale(1,1)"><path fill="none" stroke="#000000" d="M 549.0940288473256 370.78244033129357 L 559 366 L 548.6137246348279 362.3771166125834" stroke-miterlimit="10"/></g><g transform="translate(-142,-70) scale(1,1)"><g><path fill="none" stroke="none"/><text fill="#000000" stroke="none" font-family="Arial" font-size="13px" font-style="normal" font-weight="normal" text-decoration="none" x="495.5" y="355.5">«include»</text></g></g><g transform="translate(-142,-70) scale(1,1)"><path fill="#C0C0C0" stroke="none" d="M 511 193 C 511 178.6405952 557.5623808 167 615 167 C 672.4376192 167 719 178.6405952 719 193 C 719 207.3594048 672.4376192 219 615 219 C 557.5623808 219 511 207.3594048 511 193 Z" opacity="0.2"/></g><g transform="translate(-142,-70) scale(1,1)"><path fill="#ffffff" stroke="none" d="M 504 186 C 504 171.6405952 550.5623808 160 608 160 C 665.4376192 160 712 171.6405952 712 186 C 712 200.3594048 665.4376192 212 608 212 C 550.5623808 212 504 200.3594048 504 186 Z"/></g><g transform="translate(-142,-70) scale(1,1)"><path fill="none" stroke="#000000" d="M 504 186 C 504 171.6405952 550.5623808 160 608 160 C 665.4376192 160 712 171.6405952 712 186 C 712 200.3594048 665.4376192 212 608 212 C 550.5623808 212 504 200.3594048 504 186 Z" stroke-miterlimit="10"/></g><g transform="translate(-142,-70) scale(1,1)"><g><path fill="none" stroke="none"/><text fill="#000000" stroke="none" font-family="Arial" font-size="13px" font-style="normal" font-weight="bold" text-decoration="none" x="566.1689453125" y="186.5">Использовать</text><text fill="#000000" stroke="none" font-family="Arial" font-size="13px" font-style="normal" font-weight="bold" text-decoration="none" x="552.822998046875" y="199.5">заклинания в игре</text></g></g><g transform="translate(-142,-70) scale(1,1)"><path fill="none" stroke="#000000" d="M 458 165 L 503 171" stroke-miterlimit="10" stroke-dasharray="3"/></g><g transform="translate(-142,-70) scale(1,1)"><path fill="none" stroke="#000000" d="M 492.37012760913274 173.82945453292294 L 503 171 L 493.4828186619813 165.48427163655893" stroke-miterlimit="10"/></g><g transform="translate(-142,-70) scale(1,1)"><g><path fill="none" stroke="none"/><text fill="#000000" stroke="none" font-family="Arial" font-size="13px" font-style="normal" font-weight="normal" text-decoration="none" x="471.5" y="160.5">«include»</text></g></g><g transform="translate(-142,-70) scale(1,1)"><path fill="#C0C0C0" stroke="none" d="M 847 385 C 847 370.6405952 884.6080768 359 931 359 C 977.3919232 359 1015 370.6405952 1015 385 C 1015 399.3594048 977.3919232 411 931 411 C 884.6080768 411 847 399.3594048 847 385 Z" opacity="0.2"/></g><g transform="translate(-142,-70) scale(1,1)"><path fill="#ffffff" stroke="none" d="M 840 378 C 840 363.6405952 877.6080768 352 924 352 C 970.3919232 352 1008 363.6405952 1008 378 C 1008 392.3594048 970.3919232 404 924 404 C 877.6080768 404 840 392.3594048 840 378 Z"/></g><g transform="translate(-142,-70) scale(1,1)"><path fill="none" stroke="#000000" d="M 840 378 C 840 363.6405952 877.6080768 352 924 352 C 970.3919232 352 1008 363.6405952 1008 378 C 1008 392.3594048 970.3919232 404 924 404 C 877.6080768 404 840 392.3594048 840 378 Z" stroke-miterlimit="10"/></g><g transform="translate(-142,-70) scale(1,1)"><g><path fill="none" stroke="none"/><text fill="#000000" stroke="none" font-family="Arial" font-size="13px" font-style="normal" font-weight="bold" text-decoration="none" x="887.358154296875" y="378.5">Определить</text><text fill="#000000" stroke="none" font-family="Arial" font-size="13px" font-style="normal" font-weight="bold" text-decoration="none" x="896.0576171875" y="391.5">название</text></g></g><g transform="translate(-142,-70) scale(1,1)"><path fill="#C0C0C0" stroke="none" d="M 855 521 C 855 506.6405952 894.3989376 495 943 495 C 991.6010624 495 1031 506.6405952 1031 521 C 1031 535.3594048 991.6010624 547 943 547 C 894.3989376 547 855 535.3594048 855 521 Z" opacity="0.2"/></g><g transform="translate(-142,-70) scale(1,1)"><path fill="#ffffff" stroke="none" d="M 848 514 C 848 499.6405952 887.3989376 488 936 488 C 984.6010624 488 1024 499.6405952 1024 514 C 1024 528.3594048 984.6010624 540 936 540 C 887.3989376 540 848 528.3594048 848 514 Z"/></g><g transform="translate(-142,-70) scale(1,1)"><path fill="none" stroke="#000000" d="M 848 514 C 848 499.6405952 887.3989376 488 936 488 C 984.6010624 488 1024 499.6405952 1024 514 C 1024 528.3594048 984.6010624 540 936 540 C 887.3989376 540 848 528.3594048 848 514 Z" stroke-miterlimit="10"/></g><g transform="translate(-142,-70) scale(1,1)"><g><path fill="none" stroke="none"/><text fill="#000000" stroke="none" font-family="Arial" font-size="13px" font-style="normal" font-weight="bold" text-decoration="none" x="899.358154296875" y="514.5">Определить</text><text fill="#000000" stroke="none" font-family="Arial" font-size="13px" font-style="normal" font-weight="bold" text-decoration="none" x="907.952880859375" y="527.5">манакост</text></g></g><g transform="translate(-142,-70) scale(1,1)"><path fill="#C0C0C0" stroke="none" d="M 847 601 C 847 586.6405952 886.3989376 575 935 575 C 983.6010624 575 1023 586.6405952 1023 601 C 1023 615.3594048 983.6010624 627 935 627 C 886.3989376 627 847 615.3594048 847 601 Z" opacity="0.2"/></g><g transform="translate(-142,-70) scale(1,1)"><path fill="#ffffff" stroke="none" d="M 840 594 C 840 579.6405952 879.3989376 568 928 568 C 976.6010624 568 1016 579.6405952 1016 594 C 1016 608.3594048 976.6010624 620 928 620 C 879.3989376 620 840 608.3594048 840 594 Z"/></g><g transform="translate(-142,-70) scale(1,1)"><path fill="none" stroke="#000000" d="M 840 594 C 840 579.6405952 879.3989376 568 928 568 C 976.6010624 568 1016 579.6405952 1016 594 C 1016 608.3594048 976.6010624 620 928 620 C 879.3989376 620 840 608.3594048 840 594 Z" stroke-miterlimit="10"/></g><g transform="translate(-142,-70) scale(1,1)"><g><path fill="none" stroke="none"/><text fill="#000000" stroke="none" font-family="Arial" font-size="13px" font-style="normal" font-weight="bold" text-decoration="none" x="891.358154296875" y="594.5">Определить</text><text fill="#000000" stroke="none" font-family="Arial" font-size="13px" font-style="normal" font-weight="bold" text-decoration="none" x="904.009033203125" y="607.5">кулдаун</text></g></g><g transform="translate(-142,-70) scale(1,1)"><path fill="#C0C0C0" stroke="none" d="M 855 449 C 855 434.6405952 892.6080768 423 939 423 C 985.3919232 423 1023 434.6405952 1023 449 C 1023 463.3594048 985.3919232 475 939 475 C 892.6080768 475 855 463.3594048 855 449 Z" opacity="0.2"/></g><g transform="translate(-142,-70) scale(1,1)"><path fill="#ffffff" stroke="none" d="M 848 442 C 848 427.6405952 885.6080768 416 932 416 C 978.3919232 416 1016 427.6405952 1016 442 C 1016 456.3594048 978.3919232 468 932 468 C 885.6080768 468 848 456.3594048 848 442 Z"/></g><g transform="translate(-142,-70) scale(1,1)"><path fill="none" stroke="#000000" d="M 848 442 C 848 427.6405952 885.6080768 416 932 416 C 978.3919232 416 1016 427.6405952 1016 442 C 1016 456.3594048 978.3919232 468 932 468 C 885.6080768 468 848 456.3594048 848 442 Z" stroke-miterlimit="10"/></g><g transform="translate(-142,-70) scale(1,1)"><g><path fill="none" stroke="none"/><text fill="#000000" stroke="none" font-family="Arial" font-size="13px" font-style="normal" font-weight="bold" text-decoration="none" x="905.819091796875" y="442.5">Выбрать</text><text fill="#000000" stroke="none" font-family="Arial" font-size="13px" font-style="normal" font-weight="bold" text-decoration="none" x="903.806884765625" y="455.5">эффекты</text></g></g><g transform="translate(-142,-70) scale(1,1)"><path fill="none" stroke="#000000" d="M 710 471 L 862 405" stroke-miterlimit="10" stroke-dasharray="3"/></g><g transform="translate(-142,-70) scale(1,1)"><path fill="none" stroke="#000000" d="M 854.3547529574628 412.9088682918972 L 862 405 L 851.0015795716638 405.1864083730873" stroke-miterlimit="10"/></g><g transform="translate(-142,-70) scale(1,1)"><g><path fill="none" stroke="none"/><text fill="#000000" stroke="none" font-family="Arial" font-size="13px" font-style="normal" font-weight="normal" text-decoration="none" x="753.5" y="433.5">«include»</text></g></g><g transform="translate(-142,-70) scale(1,1)"><path fill="none" stroke="#000000" d="M 729 482 L 847 459" stroke-miterlimit="10" stroke-dasharray="3"/></g><g transform="translate(-142,-70) scale(1,1)"><path fill="none" stroke="#000000" d="M 837.830386430821 465.0760338208349 L 847 459 L 836.2196993469422 456.8125087818045" stroke-miterlimit="10"/></g><g transform="translate(-142,-70) scale(1,1)"><g><path fill="none" stroke="none"/><text fill="#000000" stroke="none" font-family="Arial" font-size="13px" font-style="normal" font-weight="normal" text-decoration="none" x="763.5" y="468.5">«include»</text></g></g><g transform="translate(-142,-70) scale(1,1)"><path fill="#C0C0C0" stroke="none" d="M 303 506.5 C 303 486.8938896 342.3989376 471 391 471 C 439.6010624 471 479 486.8938896 479 506.5 C 479 526.1061104 439.6010624 542 391 542 C 342.3989376 542 303 526.1061104 303 506.5 Z" opacity="0.2"/></g><g transform="translate(-142,-70) scale(1,1)"><path fill="#ffffff" stroke="none" d="M 296 499.5 C 296 479.8938896 335.3989376 464 384 464 C 432.6010624 464 472 479.8938896 472 499.5 C 472 519.1061104 432.6010624 535 384 535 C 335.3989376 535 296 519.1061104 296 499.5 Z"/></g><g transform="translate(-142,-70) scale(1,1)"><path fill="none" stroke="#000000" d="M 296 499.5 C 296 479.8938896 335.3989376 464 384 464 C 432.6010624 464 472 479.8938896 472 499.5 C 472 519.1061104 432.6010624 535 384 535 C 335.3989376 535 296 519.1061104 296 499.5 Z" stroke-miterlimit="10"/></g><g transform="translate(-142,-70) scale(1,1)"><g><path fill="none" stroke="none"/><text fill="#000000" stroke="none" font-family="Arial" font-size="13px" font-style="normal" font-weight="bold" text-decoration="none" x="339.099853515625" y="493.5">Редактировать</text><text fill="#000000" stroke="none" font-family="Arial" font-size="13px" font-style="normal" font-weight="bold" text-decoration="none" x="357.09228515625" y="506.5">профиль</text><text fill="#000000" stroke="none" font-family="Arial" font-size="13px" font-style="normal" font-weight="bold" text-decoration="none" x="351.14453125" y="519.5">персонажа</text></g></g><g transform="translate(-142,-70) scale(1,1)"><path fill="none" stroke="#000000" d="M 203 279 L 354 463" stroke-miterlimit="10"/></g><g transform="translate(-142,-70) scale(1,1)"><path fill="none" stroke="#000000" d="M 729 503 L 847 509" stroke-miterlimit="10" stroke-dasharray="3"/></g><g transform="translate(-142,-70) scale(1,1)"><path fill="none" stroke="#000000" d="M 836.6366702262035 512.6880070498229 L 847 509 L 837.0642044472825 504.27983403526963" stroke-miterlimit="10"/></g><g transform="translate(-142,-70) scale(1,1)"><g><path fill="none" stroke="none"/><text fill="#000000" stroke="none" font-family="Arial" font-size="13px" font-style="normal" font-weight="normal" text-decoration="none" x="764.5" y="497.5">«include»</text></g></g><g transform="translate(-142,-70) scale(1,1)"><path fill="none" stroke="#000000" d="M 727 525 L 849 567" stroke-miterlimit="10" stroke-dasharray="3"/></g><g transform="translate(-142,-70) scale(1,1)"><path fill="none" stroke="#000000" d="M 838.0205564509777 567.6721750916474 L 849 567 L 840.7610614473829 559.71166057828" stroke-miterlimit="10"/></g><g transform="translate(-142,-70) scale(1,1)"><g><path fill="none" stroke="none"/><text fill="#000000" stroke="none" font-family="Arial" font-size="13px" font-style="normal" font-weight="normal" text-decoration="none" x="759.5" y="535.5">«include»</text></g></g><g transform="translate(-142,-70) scale(1,1)"><path fill="none" stroke="#000000" d="M 473 499 L 567 498" stroke-miterlimit="10" stroke-dasharray="3"/></g><g transform="translate(-142,-70) scale(1,1)"><path fill="none" stroke="#000000" d="M 556.8826797356397 502.31738701859865 L 567 498 L 556.7931205957768 493.89882787149264" stroke-miterlimit="10"/></g><g transform="translate(-142,-70) scale(1,1)"><g><path fill="none" stroke="none"/><text fill="#000000" stroke="none" font-family="Arial" font-size="13px" font-style="normal" font-weight="normal" text-decoration="none" x="492.5" y="484.5">«include»</text></g></g></g></svg>